<?xml version="1.0" encoding="utf-8"?>
<!-- Generator: Adobe Illustrator 15.0.2, SVG Export Plug-In . SVG Version: 6.00 Build 0)  -->
<!DOCTYPE svg PUBLIC "-//W3C//DTD SVG 1.1//EN" "http://www.w3.org/Graphics/SVG/1.1/DTD/svg11.dtd">
<svg version="1.1" xmlns="http://www.w3.org/2000/svg" xmlns:xlink="http://www.w3.org/1999/xlink" x="0px" y="0px" width="603px"
	 height="601px" viewBox="0 0 603 601" enable-background="new 0 0 603 601" xml:space="preserve">
<g id="Layer_1" display="none">
	<path display="inline" fill="#E1F3F8" d="M495.154,64.301l92.81,479.313c0,26.028-21.103,47.135-47.131,47.135H61.519
		c-26.028,0-47.131-21.106-47.131-47.135L94.547,64.301L83.418,64.39c-14.1,0-25.531-11.428-25.531-25.528l0,0
		c0-14.098,11.431-25.529,25.531-25.529h422.863c14.103,0,25.526,11.431,25.526,25.529l0,0c0,14.1-11.424,25.528-25.526,25.528
		l-8.591,0.022L495.154,64.301z"/>
	<path display="inline" fill="#8DC63F" d="M526.509,233.992c-19.641-0.047-29.395-11.904-39.326-21.782
		c-9.555,9.503-19.011,20.885-37.19,21.782c-19.646-0.047-29.399-11.904-39.327-21.782c-9.554,9.501-18.935,20.83-37.11,21.729
		l-0.666,0.053c-19.646-0.047-29.399-11.904-39.327-21.782c-9.559,9.503-19.015,20.885-37.194,21.782
		c-19.642-0.047-29.396-11.904-39.327-21.782c-9.554,9.501-18.931,20.83-37.105,21.729l-0.413,0.053
		c-19.646-0.047-29.396-11.904-39.327-21.782c-9.556,9.503-19.015,20.885-37.19,21.782c-19.643-0.047-29.399-11.904-39.327-21.782
		c-9.554,9.501-18.935,20.83-37.108,21.729l-1.291-0.398L13.424,543.614c0,26.028,21.1,47.135,47.131,47.135H539.87
		c26.028,0,47.131-21.106,47.131-47.135l-59.977-309.731L526.509,233.992z"/>
	<path display="inline" fill="none" stroke="#000000" stroke-miterlimit="10" d="M495.154,64.301l92.81,479.313
		c0,26.028-21.103,47.135-47.131,47.135H61.519c-26.028,0-47.131-21.106-47.131-47.135L94.547,64.301L83.418,64.39
		c-14.1,0-25.531-11.428-25.531-25.528l0,0c0-14.098,11.431-25.529,25.531-25.529h422.863c14.103,0,25.526,11.431,25.526,25.529l0,0
		c0,14.1-11.424,25.528-25.526,25.528l-8.591,0.022L495.154,64.301z"/>
	<path display="inline" fill="none" stroke="#000000" stroke-miterlimit="10" d="M527.295,233.992
		c-19.646-0.047-29.399-11.904-39.327-21.782c-9.559,9.503-19.015,20.885-37.194,21.782c-19.642-0.047-29.396-11.904-39.327-21.782
		c-9.554,9.501-18.935,20.83-37.105,21.729l-0.671,0.053c-19.646-0.047-29.399-11.904-39.331-21.782
		c-9.555,9.503-19.011,20.885-37.187,21.782c-19.646-0.047-29.399-11.904-39.331-21.782c-9.554,9.501-18.935,20.83-37.11,21.729
		l-0.408,0.053c-19.642-0.047-29.396-11.904-39.327-21.782c-9.554,9.503-19.013,20.885-37.19,21.782
		c-19.643-0.047-29.397-11.904-39.327-21.782c-9.554,9.501-18.935,20.83-37.108,21.729"/>
	<path display="inline" opacity="0.54" fill="#FFFFFF" d="M107.417,71.428L30.069,543.881c0,0-14.729,47.126,79.533,34.36
		c-19.528-6.866-71.678-4.903-60.534-61.277c9.516-48.14,75.362-445.258,75.362-445.258s2.208-35.307-37.413-18.768
		C100.918,54.019,108.918,59.667,107.417,71.428z"/>
	<circle display="inline" fill="#FFFFFF" stroke="#E0E31C" stroke-miterlimit="10" cx="185.207" cy="339.646" r="38.293"/>
	<path display="inline" fill="#FFFFFF" stroke="#E0E31C" stroke-miterlimit="10" d="M431.66,306.263
		c0,15.187-12.308,27.49-27.494,27.49c-15.186,0-27.489-12.304-27.489-27.49c0-15.186,12.304-27.494,27.489-27.494
		C419.353,278.769,431.66,291.077,431.66,306.263z"/>
	<path display="inline" fill="#FFFFFF" stroke="#E0E31C" stroke-miterlimit="10" d="M373.728,348.975
		c0,11.117-9.008,20.13-20.13,20.13c-11.113,0-20.125-9.013-20.125-20.13c0-11.118,9.012-20.126,20.125-20.126
		C364.72,328.849,373.728,337.856,373.728,348.975z"/>
	<circle display="inline" fill="#FFFFFF" stroke="#E0E31C" stroke-miterlimit="10" cx="261.304" cy="398.068" r="26.02"/>
	<path display="inline" fill="#FFFFFF" stroke="#E0E31C" stroke-miterlimit="10" d="M302.052,308.719
		c0,7.862-6.374,14.236-14.235,14.236c-7.862,0-14.24-6.374-14.24-14.236c0-7.861,6.378-14.24,14.24-14.24
		C295.678,294.479,302.052,300.857,302.052,308.719z"/>
	<path display="inline" fill="#FFFFFF" stroke="#E0E31C" stroke-miterlimit="10" d="M305.979,440.779
		c0,7.054-5.717,12.766-12.761,12.766c-7.054,0-12.766-5.712-12.766-12.766c0-7.049,5.712-12.765,12.766-12.765
		C300.262,428.015,305.979,433.73,305.979,440.779z"/>
	<path display="inline" fill="#FFFFFF" stroke="#E0E31C" stroke-miterlimit="10" d="M336.417,463.361
		c0,5.97-4.837,10.802-10.802,10.802c-5.961,0-10.803-4.832-10.803-10.802c0-5.961,4.842-10.798,10.803-10.798
		C331.58,452.563,336.417,457.4,336.417,463.361z"/>
	<path display="inline" fill="#FFFFFF" stroke="#E0E31C" stroke-miterlimit="10" d="M346.233,417.217
		c0,8.675-7.031,15.71-15.706,15.71c-8.679,0-15.715-7.035-15.715-15.71s7.036-15.711,15.715-15.711
		C339.202,401.506,346.233,408.542,346.233,417.217z"/>
	<path display="inline" fill="#FFFFFF" stroke="#E0E31C" stroke-miterlimit="10" d="M415.95,467.292
		c0,16.271-13.191,29.453-29.457,29.453s-29.458-13.183-29.458-29.453c0-16.27,13.192-29.457,29.458-29.457
		S415.95,451.022,415.95,467.292z"/>
	<circle display="inline" fill="#FFFFFF" stroke="#E0E31C" stroke-miterlimit="10" cx="261.304" cy="98.749" r="26.02"/>
	<path display="inline" fill="#FFFFFF" stroke="#E0E31C" stroke-miterlimit="10" d="M305.979,141.46
		c0,7.051-5.717,12.766-12.761,12.766c-7.054,0-12.766-5.714-12.766-12.766c0-7.049,5.712-12.763,12.766-12.763
		C300.262,128.697,305.979,134.412,305.979,141.46z"/>
	<path display="inline" fill="#FFFFFF" stroke="#E0E31C" stroke-miterlimit="10" d="M336.417,164.044
		c0,5.965-4.837,10.802-10.802,10.802c-5.961,0-10.803-4.837-10.803-10.802c0-5.963,4.842-10.8,10.803-10.8
		C331.58,153.244,336.417,158.081,336.417,164.044z"/>
	<path display="inline" fill="#FFFFFF" stroke="#E0E31C" stroke-miterlimit="10" d="M346.233,117.897
		c0,8.674-7.031,15.708-15.706,15.708c-8.679,0-15.715-7.034-15.715-15.708c0-8.677,7.036-15.71,15.715-15.71
		C339.202,102.187,346.233,109.22,346.233,117.897z"/>
	<path display="inline" fill="#FFFFFF" stroke="#E0E31C" stroke-miterlimit="10" d="M415.95,167.973
		c0,16.268-13.191,29.455-29.457,29.455s-29.458-13.188-29.458-29.455c0-16.27,13.192-29.458,29.458-29.458
		S415.95,151.703,415.95,167.973z"/>
	<path display="inline" opacity="0.66" fill="#FFFFFF" d="M70.046,31.171c0,0,6.874-9.45,12.766-10.8
		c5.89-1.351,424.175,0,424.175,0s16.395,0.704,15.706,16.201c-7.746-8.248-3.927-14.851-437.918-10.8
		C79.072,24.941,70.046,31.171,70.046,31.171z"/>
</g>
<g id="Layer_2" display="none">
	<g display="inline">
		<g>
			<path fill="#D1D3D4" stroke="#808285" stroke-miterlimit="10" d="M438.515,200.265l93.531,73.69
				c0,0,91.502-128.504,37.971-258.32l0,0c-139.061-25.566-241.058,98.322-241.058,98.322l87.72,69.108"/>
			<line fill="#939598" stroke="#808285" stroke-miterlimit="10" x1="570.017" y1="15.635" x2="451.029" y2="167.242"/>
			<polygon fill="#8B5E3C" points="150.676,576.076 122.762,554.084 415.662,182.308 454.961,161.863 443.58,204.295 			"/>
			<path fill="#8B5E3C" d="M165.127,579.607c-10.624,13.489-30.164,15.806-43.642,5.183c-13.484-10.625-15.801-30.159-5.182-43.644
				c10.624-13.483,30.163-15.801,43.643-5.182C173.43,546.589,175.747,566.128,165.127,579.607z"/>
		</g>
		<g>
			<polygon fill="#8B5E3C" points="511.895,553.959 474.918,583.437 86.628,96.244 123.61,66.773 			"/>
			<g>
				<polyline fill="#6D6E71" points="13.543,172.128 9.132,186.786 75.959,270.63 92.321,270.584 				"/>
				<polyline fill="#6D6E71" points="211.658,14.41 226.925,13.38 293.752,97.226 290.059,113.163 				"/>
				<polygon fill="#BCBEC0" points="290.21,113.065 92.133,270.929 13.507,172.204 211.585,14.335 				"/>
				<polygon fill="#D1D3D4" points="290.059,113.163 92.16,270.89 78.048,253.183 275.947,95.462 				"/>
				
					<rect x="-7.107" y="90.764" transform="matrix(0.782 -0.6233 0.6233 0.782 -37.5919 96.6853)" fill="#D1D3D4" width="253.063" height="22.639"/>
			</g>
			<path fill="#8B5E3C" d="M131.902,63.873c2.43,3.046,1.927,7.481-1.12,9.909L90.564,105.84c-3.048,2.424-7.486,1.925-9.912-1.119
				l0,0c-2.425-3.049-1.923-7.484,1.125-9.912l40.219-32.058C125.039,60.325,129.473,60.827,131.902,63.873L131.902,63.873z"/>
			<path fill="#8B5E3C" d="M518.126,548.467c2.429,3.044,1.927,7.481-1.121,9.91l-40.218,32.056
				c-3.048,2.426-7.486,1.924-9.911-1.124l0,0c-2.431-3.04-1.928-7.478,1.116-9.907l40.222-32.055
				C511.258,544.921,515.696,545.419,518.126,548.467L518.126,548.467z"/>
		</g>
	</g>
</g>
<g id="Layer_3" display="none">
	<g display="inline">
		<path fill="#F7941E" stroke="#000000" stroke-miterlimit="10" d="M300.562,564.339c29.662-1.552,86.372-7.425,144.694-22.978
			c-9.375-16.402,7.029-337.373,7.029-337.373s16.398,53.889,28.112,79.659c77.313,0,105.426-49.2,105.426-49.2L520.229,82.163
			L414.8,44.676c0,0-18.746,0-35.147-2.343c-7.026,10.542-56.23,19.768-80.393,23.721l0.072-0.036
			c-24.241-3.974-73.157-13.177-80.159-23.685c-16.401,2.343-35.143,2.343-35.143,2.343L78.601,82.163l-65.6,152.285
			c0,0,28.117,49.2,105.433,49.2c11.704-25.771,28.113-79.659,28.113-79.659s16.401,320.97,7.022,337.373
			c58.822,15.686,116.006,21.526,145.448,23.014L300.562,564.339z"/>
		<rect x="177.254" y="106.123" fill="none" width="258.484" height="208.385"/>
		
			<text transform="matrix(1 0 0 1 177.2534 293.687)" fill="#FFFFFF" stroke="#000000" font-family="'Impact'" font-size="237.1268">23</text>
	</g>
</g>
<g id="Layer_4">
	<g>
		<path fill="#9F1D20" d="M357.631,46.838c0,0,11.25-28.14,21.383-28.14c10.13,0,46.151,41.646,46.151,41.646L357.631,71.6V46.838z"
			/>
		<path fill="#C2B59B" stroke="#000000" stroke-miterlimit="10" d="M551.223,536.329c0,49.649-2.246,54.151-54.15,54.151H160.656
			l-20.258-13.507L119.14,590.48c-29.905,0-54.154-24.244-54.154-54.151V94.236c0-29.905,24.25-54.15,54.154-54.15l24.638,13.509
			l22.508-13.509h330.787c53.024,0,54.15,1.125,54.15,54.15V536.329z"/>
		<path fill="#754C29" stroke="#000000" stroke-miterlimit="10" d="M140.398,576.974L119.14,590.48
			c-29.905,0-54.154-24.244-54.154-54.151V94.236c0-29.905,24.25-54.15,54.154-54.15l24.638,13.509"/>
		<path fill="#BE1E2D" stroke="#000000" stroke-miterlimit="10" d="M364.381,34.425c0,0,5.634-22.51,29.267-22.51
			c23.638,0,66.409,0,66.409,0s16.882,10.127,16.882,21.383s0,175.59,0,175.59l-46.717-46.71l-45.583,45.583V41.18
			C384.639,41.18,380.143,17.542,364.381,34.425z"/>
		<rect x="161.329" y="282.666" fill="none" width="383.66" height="129.432"/>
		
			<text transform="matrix(1 0 0 1 161.3286 370.6191)" fill="#FFFFFF" stroke="#754C29" stroke-miterlimit="10" font-family="'Impact'" font-size="111.1944">WEB 101</text>
	</g>
</g>
</svg>
