<?xml version="1.0" encoding="utf-8"?>
<!-- Generator: Adobe Illustrator 15.0.2, SVG Export Plug-In . SVG Version: 6.00 Build 0)  -->
<!DOCTYPE svg PUBLIC "-//W3C//DTD SVG 1.1//EN" "http://www.w3.org/Graphics/SVG/1.1/DTD/svg11.dtd">
<svg version="1.1" id="Layer_1" xmlns="http://www.w3.org/2000/svg" xmlns:xlink="http://www.w3.org/1999/xlink" x="0px" y="0px"
	 width="603px" height="601px" viewBox="0 0 603 601" enable-background="new 0 0 603 601" xml:space="preserve">
<g id="Layer_1_1_" display="none">
	<path display="inline" fill="#E1F3F8" d="M495.154,64.301l92.81,479.313c0,26.027-21.103,47.135-47.131,47.135H61.519
		c-26.028,0-47.131-21.106-47.131-47.135L94.547,64.301L83.418,64.39c-14.1,0-25.531-11.428-25.531-25.528l0,0
		c0-14.098,11.431-25.529,25.531-25.529h422.863c14.103,0,25.525,11.431,25.525,25.529l0,0c0,14.1-11.424,25.528-25.525,25.528
		l-8.591,0.022L495.154,64.301z"/>
	<path display="inline" fill="#8DC63F" d="M526.509,233.992c-19.641-0.047-29.395-11.904-39.326-21.782
		c-9.555,9.503-19.011,20.885-37.189,21.782c-19.646-0.047-29.399-11.904-39.327-21.782c-9.554,9.501-18.936,20.83-37.109,21.729
		l-0.666,0.053c-19.646-0.047-29.399-11.904-39.328-21.782c-9.559,9.503-19.015,20.885-37.193,21.782
		c-19.642-0.047-29.396-11.904-39.327-21.782c-9.554,9.501-18.931,20.83-37.105,21.729l-0.413,0.053
		c-19.646-0.047-29.396-11.904-39.327-21.782c-9.556,9.503-19.015,20.885-37.19,21.782c-19.643-0.047-29.399-11.904-39.327-21.782
		c-9.554,9.501-18.935,20.83-37.108,21.729l-1.291-0.398L13.424,543.614c0,26.027,21.1,47.135,47.131,47.135H539.87
		c26.028,0,47.131-21.106,47.131-47.135l-59.977-309.731L526.509,233.992z"/>
	<path display="inline" fill="none" stroke="#000000" stroke-miterlimit="10" d="M495.154,64.301l92.81,479.313
		c0,26.027-21.103,47.135-47.131,47.135H61.519c-26.028,0-47.131-21.106-47.131-47.135L94.547,64.301L83.418,64.39
		c-14.1,0-25.531-11.428-25.531-25.528l0,0c0-14.098,11.431-25.529,25.531-25.529h422.863c14.103,0,25.525,11.431,25.525,25.529l0,0
		c0,14.1-11.424,25.528-25.525,25.528l-8.591,0.022L495.154,64.301z"/>
	<path display="inline" fill="none" stroke="#000000" stroke-miterlimit="10" d="M527.295,233.992
		c-19.646-0.047-29.398-11.904-39.327-21.782c-9.559,9.503-19.015,20.885-37.193,21.782c-19.643-0.047-29.396-11.904-39.327-21.782
		c-9.555,9.501-18.936,20.83-37.105,21.729l-0.671,0.053c-19.646-0.047-29.399-11.904-39.331-21.782
		c-9.555,9.503-19.011,20.885-37.187,21.782c-19.646-0.047-29.399-11.904-39.331-21.782c-9.554,9.501-18.935,20.83-37.11,21.729
		l-0.408,0.053c-19.642-0.047-29.396-11.904-39.327-21.782c-9.554,9.503-19.013,20.885-37.19,21.782
		c-19.643-0.047-29.397-11.904-39.327-21.782c-9.554,9.501-18.935,20.83-37.108,21.729"/>
	<path display="inline" opacity="0.54" fill="#FFFFFF" enable-background="new    " d="M107.417,71.428L30.069,543.881
		c0,0-14.729,47.126,79.533,34.36c-19.528-6.866-71.678-4.903-60.534-61.277c9.516-48.14,75.362-445.258,75.362-445.258
		s2.208-35.307-37.413-18.768C100.918,54.019,108.918,59.667,107.417,71.428z"/>
	<circle display="inline" fill="#FFFFFF" stroke="#E0E31C" stroke-miterlimit="10" cx="185.207" cy="339.646" r="38.293"/>
	<path display="inline" fill="#FFFFFF" stroke="#E0E31C" stroke-miterlimit="10" d="M431.66,306.263
		c0,15.188-12.309,27.49-27.494,27.49s-27.489-12.304-27.489-27.49c0-15.186,12.304-27.494,27.489-27.494
		C419.353,278.769,431.66,291.077,431.66,306.263z"/>
	<path display="inline" fill="#FFFFFF" stroke="#E0E31C" stroke-miterlimit="10" d="M373.729,348.975
		c0,11.117-9.008,20.131-20.131,20.131c-11.113,0-20.125-9.014-20.125-20.131s9.012-20.126,20.125-20.126
		C364.721,328.849,373.729,337.856,373.729,348.975z"/>
	<circle display="inline" fill="#FFFFFF" stroke="#E0E31C" stroke-miterlimit="10" cx="261.304" cy="398.068" r="26.02"/>
	<path display="inline" fill="#FFFFFF" stroke="#E0E31C" stroke-miterlimit="10" d="M302.052,308.719
		c0,7.862-6.374,14.236-14.235,14.236c-7.862,0-14.24-6.374-14.24-14.236c0-7.861,6.378-14.24,14.24-14.24
		C295.678,294.479,302.052,300.857,302.052,308.719z"/>
	<path display="inline" fill="#FFFFFF" stroke="#E0E31C" stroke-miterlimit="10" d="M305.979,440.779
		c0,7.054-5.716,12.766-12.761,12.766c-7.054,0-12.766-5.712-12.766-12.766c0-7.049,5.712-12.766,12.766-12.766
		C300.262,428.015,305.979,433.73,305.979,440.779z"/>
	<path display="inline" fill="#FFFFFF" stroke="#E0E31C" stroke-miterlimit="10" d="M336.417,463.361
		c0,5.97-4.837,10.802-10.802,10.802c-5.961,0-10.803-4.832-10.803-10.802c0-5.961,4.842-10.799,10.803-10.799
		C331.58,452.562,336.417,457.4,336.417,463.361z"/>
	<path display="inline" fill="#FFFFFF" stroke="#E0E31C" stroke-miterlimit="10" d="M346.232,417.217
		c0,8.675-7.03,15.71-15.705,15.71c-8.68,0-15.715-7.035-15.715-15.71s7.035-15.711,15.715-15.711
		C339.202,401.506,346.232,408.542,346.232,417.217z"/>
	<path display="inline" fill="#FFFFFF" stroke="#E0E31C" stroke-miterlimit="10" d="M415.95,467.292
		c0,16.271-13.191,29.453-29.457,29.453c-16.267,0-29.458-13.184-29.458-29.453s13.191-29.457,29.458-29.457
		C402.759,437.835,415.95,451.022,415.95,467.292z"/>
	<circle display="inline" fill="#FFFFFF" stroke="#E0E31C" stroke-miterlimit="10" cx="261.304" cy="98.749" r="26.02"/>
	<path display="inline" fill="#FFFFFF" stroke="#E0E31C" stroke-miterlimit="10" d="M305.979,141.46
		c0,7.051-5.716,12.766-12.761,12.766c-7.054,0-12.766-5.714-12.766-12.766c0-7.049,5.712-12.763,12.766-12.763
		C300.262,128.697,305.979,134.412,305.979,141.46z"/>
	<path display="inline" fill="#FFFFFF" stroke="#E0E31C" stroke-miterlimit="10" d="M336.417,164.044
		c0,5.965-4.837,10.802-10.802,10.802c-5.961,0-10.803-4.837-10.803-10.802c0-5.963,4.842-10.8,10.803-10.8
		C331.58,153.244,336.417,158.081,336.417,164.044z"/>
	<path display="inline" fill="#FFFFFF" stroke="#E0E31C" stroke-miterlimit="10" d="M346.232,117.897
		c0,8.674-7.03,15.708-15.705,15.708c-8.68,0-15.715-7.034-15.715-15.708c0-8.677,7.035-15.71,15.715-15.71
		C339.202,102.187,346.232,109.22,346.232,117.897z"/>
	<path display="inline" fill="#FFFFFF" stroke="#E0E31C" stroke-miterlimit="10" d="M415.95,167.973
		c0,16.268-13.191,29.455-29.457,29.455c-16.267,0-29.458-13.188-29.458-29.455c0-16.27,13.191-29.458,29.458-29.458
		C402.759,138.515,415.95,151.703,415.95,167.973z"/>
	<path display="inline" opacity="0.66" fill="#FFFFFF" enable-background="new    " d="M70.046,31.171c0,0,6.874-9.45,12.766-10.8
		c5.89-1.351,424.175,0,424.175,0s16.395,0.704,15.706,16.201c-7.746-8.248-3.928-14.851-437.918-10.8
		C79.072,24.941,70.046,31.171,70.046,31.171z"/>
</g>
<g id="Layer_2" display="none">
	<g display="inline">
		<g>
			<path fill="#D1D3D4" stroke="#808285" stroke-miterlimit="10" d="M438.515,200.265l93.531,73.69
				c0,0,91.502-128.504,37.971-258.32l0,0c-139.061-25.566-241.058,98.322-241.058,98.322l87.72,69.108"/>
			<line fill="none" stroke="#808285" stroke-miterlimit="10" x1="570.017" y1="15.635" x2="451.029" y2="167.242"/>
			<polygon fill="#8B5E3C" points="150.676,576.076 122.762,554.084 415.662,182.308 454.961,161.863 443.58,204.295 			"/>
			<path fill="#8B5E3C" d="M165.127,579.607c-10.624,13.488-30.164,15.806-43.642,5.183c-13.484-10.625-15.801-30.159-5.182-43.644
				c10.624-13.483,30.163-15.802,43.643-5.183C173.43,546.589,175.747,566.128,165.127,579.607z"/>
		</g>
		<g>
			<polygon fill="#8B5E3C" points="511.895,553.959 474.918,583.438 86.628,96.244 123.61,66.773 			"/>
			<g>
				<polyline fill="#6D6E71" points="13.543,172.128 9.132,186.786 75.959,270.63 92.321,270.584 				"/>
				<polyline fill="#6D6E71" points="211.658,14.41 226.925,13.38 293.752,97.226 290.059,113.163 				"/>
				<polygon fill="#BCBEC0" points="290.21,113.065 92.133,270.929 13.507,172.204 211.585,14.335 				"/>
				<polygon fill="#D1D3D4" points="290.059,113.163 92.16,270.89 78.048,253.183 275.947,95.462 				"/>
				
					<rect x="-7.106" y="90.758" transform="matrix(-0.782 0.6233 -0.6233 -0.782 276.4412 107.463)" fill="#D1D3D4" width="253.066" height="22.639"/>
			</g>
			<path fill="#8B5E3C" d="M131.902,63.873c2.43,3.046,1.927,7.481-1.12,9.909L90.564,105.84c-3.048,2.424-7.486,1.925-9.912-1.119
				l0,0c-2.425-3.049-1.923-7.484,1.125-9.912l40.219-32.058C125.039,60.325,129.473,60.827,131.902,63.873L131.902,63.873z"/>
			<path fill="#8B5E3C" d="M518.126,548.467c2.429,3.044,1.927,7.481-1.121,9.91l-40.218,32.056
				c-3.048,2.427-7.486,1.925-9.911-1.124l0,0c-2.431-3.04-1.928-7.478,1.116-9.906l40.222-32.056
				C511.258,544.921,515.696,545.419,518.126,548.467L518.126,548.467z"/>
		</g>
	</g>
</g>
<g id="Layer_4" display="none">
	<g display="inline">
		<path fill="#9F1D20" d="M357.631,46.838c0,0,11.25-28.14,21.383-28.14c10.131,0,46.151,41.646,46.151,41.646L357.631,71.6V46.838z
			"/>
		<path fill="#C2B59B" stroke="#000000" stroke-miterlimit="10" d="M551.223,536.329c0,49.648-2.246,54.151-54.149,54.151H160.656
			l-20.258-13.508L119.14,590.48c-29.905,0-54.154-24.244-54.154-54.151V94.236c0-29.905,24.25-54.15,54.154-54.15l24.638,13.509
			l22.508-13.509h330.787c53.023,0,54.149,1.125,54.149,54.15V536.329z"/>
		<path fill="#754C29" stroke="#000000" stroke-miterlimit="10" d="M140.398,576.974L119.14,590.48
			c-29.905,0-54.154-24.244-54.154-54.151V94.236c0-29.905,24.25-54.15,54.154-54.15l24.638,13.509"/>
		<path fill="#BE1E2D" stroke="#000000" stroke-miterlimit="10" d="M364.381,34.425c0,0,5.635-22.51,29.268-22.51
			c23.638,0,66.408,0,66.408,0s16.883,10.127,16.883,21.383c0,11.256,0,175.59,0,175.59l-46.718-46.71l-45.583,45.583V41.18
			C384.639,41.18,380.143,17.542,364.381,34.425z"/>
		<g>
			<path fill="#FFFFFF" stroke="#754C29" stroke-miterlimit="10" d="M251.945,282.717l-10.178,87.902h-28.538
				c-2.613-13.505-4.918-28.87-6.918-46.096c-0.912,7.386-3.037,22.751-6.375,46.096h-28.375l-10.232-87.902h22.206l2.416,30.67
				l2.335,29.651c0.843-15.345,2.95-35.451,6.32-60.321h23.736c0.315,2.571,1.146,12.235,2.493,28.993l2.525,33.445
				c1.299-21.278,3.426-42.091,6.378-62.438L251.945,282.717L251.945,282.717z"/>
			<path fill="#FFFFFF" stroke="#754C29" stroke-miterlimit="10" d="M256.452,282.717h38.114v17.591H279.31v16.667h14.279v16.724
				H279.31v19.329h16.776v17.591h-39.635L256.452,282.717L256.452,282.717z"/>
			<path fill="#FFFFFF" stroke="#754C29" stroke-miterlimit="10" d="M302.656,282.717h22.804c7.202,0,12.659,0.561,16.37,1.683
				c3.709,1.121,6.705,3.391,8.984,6.809c2.281,3.419,3.42,8.925,3.42,16.521c0,5.137-0.805,8.718-2.416,10.742
				c-1.609,2.026-4.786,3.581-9.527,4.666c5.284,1.195,8.868,3.179,10.75,5.949c1.882,2.771,2.823,7.019,2.823,12.739v8.147
				c0,5.94-0.679,10.342-2.035,13.201c-1.356,2.861-3.521,4.816-6.488,5.867c-2.969,1.05-9.05,1.575-18.243,1.575h-26.44
				L302.656,282.717L302.656,282.717z M325.516,297.756v19.546c0.977-0.036,1.736-0.055,2.279-0.055
				c2.243,0,3.673-0.552,4.289-1.656c0.615-1.104,0.923-4.262,0.923-9.474c0-2.75-0.254-4.678-0.76-5.782
				c-0.508-1.104-1.168-1.8-1.981-2.09C329.45,297.956,327.867,297.793,325.516,297.756z M325.516,330.984v24.596
				c3.221-0.109,5.273-0.615,6.161-1.521c0.888-0.903,1.33-3.131,1.33-6.679v-8.198c0-3.764-0.397-6.044-1.194-6.841
				C331.016,331.546,328.916,331.093,325.516,330.984z"/>
			<path fill="#FFFFFF" stroke="#754C29" stroke-miterlimit="10" d="M416.837,282.717v87.902h-21.935v-47.127
				c0-6.805-0.163-10.896-0.489-12.271c-0.325-1.375-1.222-2.416-2.688-3.122c-1.466-0.706-4.731-1.059-9.8-1.059h-2.172v-10.249
				c10.604-2.282,18.658-6.974,24.161-14.076h12.923V282.717z"/>
			<path fill="#FFFFFF" stroke="#754C29" stroke-miterlimit="10" d="M477.104,312.47v29.319c0,6.66-0.361,11.51-1.086,14.551
				c-0.725,3.04-2.226,5.883-4.506,8.524c-2.279,2.643-5.031,4.543-8.253,5.7c-3.223,1.157-6.823,1.737-10.805,1.737
				c-5.249,0-9.61-0.606-13.085-1.818c-3.476-1.212-6.244-3.104-8.307-5.675c-2.063-2.568-3.529-5.274-4.398-8.116
				c-0.868-2.842-1.303-7.356-1.303-13.546V312.47c0-8.071,0.695-14.116,2.09-18.134c1.394-4.018,4.162-7.239,8.308-9.665
				c4.145-2.424,9.166-3.638,15.066-3.638c4.812,0,9.121,0.842,12.922,2.525s6.642,3.738,8.524,6.162
				c1.882,2.426,3.156,5.158,3.827,8.199C476.769,300.96,477.104,305.811,477.104,312.47z M455.169,305.086
				c0-4.669-0.227-7.592-0.679-8.769c-0.453-1.176-1.512-1.764-3.177-1.764c-1.629,0-2.706,0.624-3.23,1.873
				s-0.787,4.136-0.787,8.66v42.893c0,5.104,0.244,8.182,0.733,9.229c0.487,1.051,1.547,1.575,3.176,1.575s2.696-0.615,3.203-1.847
				c0.507-1.23,0.761-4,0.761-8.308V305.086z"/>
			<path fill="#FFFFFF" stroke="#754C29" stroke-miterlimit="10" d="M518.802,282.717v87.902h-21.935v-47.127
				c0-6.805-0.163-10.896-0.489-12.271c-0.325-1.375-1.222-2.416-2.688-3.122c-1.467-0.706-4.732-1.059-9.801-1.059h-2.172v-10.249
				c10.605-2.282,18.658-6.974,24.161-14.076h12.923V282.717z"/>
		</g>
	</g>
</g>
<circle fill="#8FEAFF" stroke="#00ADDC" stroke-width="12" stroke-miterlimit="10" cx="108" cy="87" r="68"/>
<circle fill="#8FEAFF" stroke="#00ADDC" stroke-width="12" stroke-miterlimit="10" cx="105" cy="516" r="71"/>
<circle fill="#8FEAFF" stroke="#00ADDC" stroke-width="12" stroke-miterlimit="10" cx="494" cy="109" r="92"/>
<g>
	<g>
		<line fill="none" stroke="#00ADDC" stroke-width="12" stroke-miterlimit="10" x1="529" y1="196" x2="528.943" y2="202"/>
		
			<line fill="none" stroke="#00ADDC" stroke-width="12" stroke-miterlimit="10" stroke-dasharray="11.7653,11.7653" x1="528.832" y1="213.765" x2="527.112" y2="396.118"/>
		<line fill="none" stroke="#00ADDC" stroke-width="12" stroke-miterlimit="10" x1="527.057" y1="402" x2="527" y2="408"/>
	</g>
</g>
<circle fill="#8FEAFF" stroke="#00ADDC" stroke-width="12" stroke-miterlimit="10" cx="461" cy="431" r="73"/>
<line fill="#8FEAFF" stroke="#00ADDC" stroke-width="12" stroke-miterlimit="10" x1="362" y1="329" x2="412" y2="381"/>
<line fill="#8FEAFF" stroke="#00ADDC" stroke-width="12" stroke-miterlimit="10" x1="362" y1="204" x2="417" y2="161"/>
<line fill="#8FEAFF" stroke="#00ADDC" stroke-width="12" stroke-miterlimit="10" x1="228" y1="204" x2="158" y2="131"/>
<line fill="#8FEAFF" stroke="#00ADDC" stroke-width="12" stroke-miterlimit="10" x1="228" y1="329" x2="145" y2="452"/>
<g>
	<g>
		<line fill="none" stroke="#00ADDC" stroke-width="12" stroke-miterlimit="10" x1="171" y1="515" x2="176.841" y2="513.63"/>
		
			<line fill="none" stroke="#00ADDC" stroke-width="12" stroke-miterlimit="10" stroke-dasharray="11.5859,11.5859" x1="188.122" y1="510.984" x2="385.519" y2="464.692"/>
		<line fill="none" stroke="#00ADDC" stroke-width="12" stroke-miterlimit="10" x1="391.158" y1="463.37" x2="397" y2="462"/>
	</g>
</g>
<line fill="none" stroke="#00ADDC" stroke-width="12" stroke-miterlimit="10" stroke-dasharray="12" x1="173" y1="78" x2="399" y2="97"/>
<line fill="none" stroke="#00ADDC" stroke-width="12" stroke-miterlimit="10" stroke-dasharray="12" x1="92" y1="155" x2="83" y2="447"/>
<g>
	<defs>
		<circle id="SVGID_9_" cx="108" cy="87" r="62"/>
	</defs>
	<clipPath id="SVGID_1_">
		<use xlink:href="#SVGID_9_"  overflow="visible"/>
	</clipPath>
	<g clip-path="url(#SVGID_1_)">
		<circle fill="#FFFFFF" cx="108.375" cy="56.782" r="24.5"/>
		<path fill="#FFFFFF" d="M108.507,88.515c0,0,12.097,0.807,20.778-7.689c13.356,3.339,28.382,13.356,28.382,54.259
			s0,51.755,0,51.755h-48.891H60c0,0,0-10.852,0-51.755s15.026-50.92,28.382-54.259C98.562,89.143,108.507,88.515,108.507,88.515z"
			/>
	</g>
</g>
<g>
	<defs>
		<circle id="SVGID_11_" cx="493.667" cy="108.333" r="86.333"/>
	</defs>
	<clipPath id="SVGID_2_">
		<use xlink:href="#SVGID_11_"  overflow="visible"/>
	</clipPath>
	<g clip-path="url(#SVGID_2_)">
		<circle fill="#FFFFFF" cx="494.19" cy="66.256" r="34.116"/>
		<path fill="#FFFFFF" d="M494.373,110.443c0,0,16.844,1.123,28.934-10.708c18.596,4.65,39.52,18.598,39.52,75.554
			c0,56.957,0,72.068,0,72.068h-68.078h-67.92c0,0,0-15.111,0-72.068c0-56.957,20.923-70.904,39.521-75.554
			C480.524,111.317,494.373,110.443,494.373,110.443z"/>
	</g>
</g>
<g>
	<defs>
		<circle id="SVGID_13_" cx="461.5" cy="431.167" r="66.834"/>
	</defs>
	<clipPath id="SVGID_3_">
		<use xlink:href="#SVGID_13_"  overflow="visible"/>
	</clipPath>
	<g clip-path="url(#SVGID_3_)">
		<circle fill="#FFFFFF" cx="461.905" cy="398.594" r="26.411"/>
		<path fill="#FFFFFF" d="M462.047,432.801c0,0,13.04,0.87,22.397-8.29c14.396,3.599,30.595,14.398,30.595,58.489
			c0,44.094,0,55.793,0,55.793h-52.702h-52.58c0,0,0-11.699,0-55.793c0-44.091,16.197-54.891,30.596-58.489
			C451.326,433.477,462.047,432.801,462.047,432.801z"/>
	</g>
</g>
<g>
	<defs>
		<circle id="SVGID_15_" cx="105.166" cy="515.5" r="65.167"/>
	</defs>
	<clipPath id="SVGID_4_">
		<use xlink:href="#SVGID_15_"  overflow="visible"/>
	</clipPath>
	<g clip-path="url(#SVGID_4_)">
		<circle fill="#FFFFFF" cx="105.561" cy="483.74" r="25.752"/>
		<path fill="#FFFFFF" d="M105.699,517.094c0,0,12.715,0.849,21.839-8.083c14.037,3.508,29.832,14.039,29.832,57.03
			c0,42.993,0,54.401,0,54.401h-51.388H54.713c0,0,0-11.408,0-54.401c0-42.991,15.793-53.522,29.833-57.03
			C95.246,517.753,105.699,517.094,105.699,517.094z"/>
	</g>
</g>
<circle fill="#00ADDC" stroke="#8FEAFF" stroke-width="12" stroke-miterlimit="10" cx="291" cy="266" r="89"/>
<g>
	<path fill="#FFFFFF" d="M251.314,254.878c-0.804-3.468-2.768-5.892-5.892-7.27c-1.746-0.758-3.687-1.137-5.823-1.137
		c-4.089,0-7.448,1.542-10.078,4.626c-2.63,3.083-3.945,7.72-3.945,13.91c0,6.236,1.424,10.649,4.272,13.24
		c2.848,2.59,6.086,3.886,9.716,3.886c3.56,0,6.478-1.021,8.751-3.064c2.274-2.043,3.675-4.72,4.204-8.03h-11.75v-8.476h21.156
		v27.254h-7.029l-1.068-6.34c-2.044,2.401-3.882,4.094-5.513,5.077c-2.803,1.715-6.249,2.572-10.336,2.572
		c-6.731,0-12.244-2.33-16.539-6.99c-4.479-4.683-6.719-11.087-6.719-19.214c0-8.217,2.262-14.806,6.788-19.764
		c4.525-4.958,10.509-7.438,17.951-7.438c6.455,0,11.64,1.637,15.557,4.91c3.916,3.273,6.161,7.356,6.736,12.249H251.314z"/>
	<path fill="#FFFFFF" d="M304.602,240.338c1.87,0.804,3.455,1.987,4.755,3.549c1.074,1.287,1.926,2.711,2.553,4.272
		c0.627,1.562,0.941,3.342,0.941,5.341c0,2.412-0.609,4.784-1.826,7.115c-1.218,2.332-3.228,3.979-6.03,4.944
		c2.344,0.942,4.003,2.28,4.979,4.014c0.976,1.734,1.464,4.381,1.464,7.942v3.411c0,2.321,0.094,3.894,0.28,4.721
		c0.28,1.309,0.933,2.274,1.96,2.894v1.275h-11.715c-0.322-1.125-0.551-2.033-0.689-2.722c-0.275-1.424-0.425-2.882-0.448-4.375
		l-0.069-4.72c-0.044-3.239-0.603-5.398-1.679-6.478s-3.091-1.62-6.046-1.62h-10.364v19.915h-10.371v-50.787h24.292
		C300.06,239.098,302.731,239.535,304.602,240.338z M282.668,247.85v13.644h11.42c2.269,0,3.97-0.275,5.105-0.827
		c2.007-0.965,3.01-2.871,3.01-5.72c0-3.078-0.971-5.145-2.912-6.202c-1.091-0.597-2.727-0.896-4.908-0.896H282.668z"/>
	<path fill="#FFFFFF" d="M327.866,244.335c4.09-4.181,9.294-6.271,15.611-6.271c8.453,0,14.635,2.803,18.544,8.407
		c2.158,3.147,3.317,6.306,3.477,9.476h-10.612c-0.675-2.435-1.542-4.272-2.6-5.513c-1.89-2.205-4.691-3.308-8.404-3.308
		c-3.78,0-6.763,1.557-8.945,4.669c-2.183,3.113-3.273,7.517-3.273,13.213c0,5.697,1.151,9.963,3.454,12.8
		c2.304,2.837,5.229,4.255,8.78,4.255c3.64,0,6.415-1.217,8.325-3.652c1.056-1.309,1.932-3.273,2.629-5.892h10.543
		c-0.909,5.536-3.233,10.038-6.971,13.506c-3.738,3.469-8.527,5.203-14.367,5.203c-7.227,0-12.908-2.343-17.044-7.029
		c-4.136-4.708-6.203-11.164-6.203-19.364C320.81,255.97,323.161,249.136,327.866,244.335z"/>
</g>
</svg>
