<?xml version="1.0" encoding="utf-8"?>
<!-- Generator: Adobe Illustrator 15.0.2, SVG Export Plug-In . SVG Version: 6.00 Build 0)  -->
<!DOCTYPE svg PUBLIC "-//W3C//DTD SVG 1.1//EN" "http://www.w3.org/Graphics/SVG/1.1/DTD/svg11.dtd">
<svg version="1.1" xmlns="http://www.w3.org/2000/svg" xmlns:xlink="http://www.w3.org/1999/xlink" x="0px" y="0px" width="603px"
	 height="601px" viewBox="0 0 603 601" enable-background="new 0 0 603 601" xml:space="preserve">
<g id="Layer_1" display="none">
	<path display="inline" fill="#E1F3F8" d="M495.154,64.301l92.81,479.313c0,26.028-21.103,47.135-47.131,47.135H61.519
		c-26.028,0-47.131-21.106-47.131-47.135L94.547,64.301L83.418,64.39c-14.1,0-25.531-11.428-25.531-25.528l0,0
		c0-14.098,11.431-25.529,25.531-25.529h422.863c14.103,0,25.526,11.431,25.526,25.529l0,0c0,14.1-11.424,25.528-25.526,25.528
		l-8.591,0.022L495.154,64.301z"/>
	<path display="inline" fill="#8DC63F" d="M526.509,233.992c-19.641-0.047-29.395-11.904-39.326-21.782
		c-9.555,9.503-19.011,20.885-37.19,21.782c-19.646-0.047-29.399-11.904-39.327-21.782c-9.554,9.501-18.935,20.83-37.11,21.729
		l-0.666,0.053c-19.646-0.047-29.399-11.904-39.327-21.782c-9.559,9.503-19.015,20.885-37.194,21.782
		c-19.642-0.047-29.396-11.904-39.327-21.782c-9.554,9.501-18.931,20.83-37.105,21.729l-0.413,0.053
		c-19.646-0.047-29.396-11.904-39.327-21.782c-9.556,9.503-19.015,20.885-37.19,21.782c-19.643-0.047-29.399-11.904-39.327-21.782
		c-9.554,9.501-18.935,20.83-37.108,21.729l-1.291-0.398L13.424,543.614c0,26.028,21.1,47.135,47.131,47.135H539.87
		c26.028,0,47.131-21.106,47.131-47.135l-59.977-309.731L526.509,233.992z"/>
	<path display="inline" fill="none" stroke="#000000" stroke-miterlimit="10" d="M495.154,64.301l92.81,479.313
		c0,26.028-21.103,47.135-47.131,47.135H61.519c-26.028,0-47.131-21.106-47.131-47.135L94.547,64.301L83.418,64.39
		c-14.1,0-25.531-11.428-25.531-25.528l0,0c0-14.098,11.431-25.529,25.531-25.529h422.863c14.103,0,25.526,11.431,25.526,25.529l0,0
		c0,14.1-11.424,25.528-25.526,25.528l-8.591,0.022L495.154,64.301z"/>
	<path display="inline" fill="none" stroke="#000000" stroke-miterlimit="10" d="M527.295,233.992
		c-19.646-0.047-29.399-11.904-39.327-21.782c-9.559,9.503-19.015,20.885-37.194,21.782c-19.642-0.047-29.396-11.904-39.327-21.782
		c-9.554,9.501-18.935,20.83-37.105,21.729l-0.671,0.053c-19.646-0.047-29.399-11.904-39.331-21.782
		c-9.555,9.503-19.011,20.885-37.187,21.782c-19.646-0.047-29.399-11.904-39.331-21.782c-9.554,9.501-18.935,20.83-37.11,21.729
		l-0.408,0.053c-19.642-0.047-29.396-11.904-39.327-21.782c-9.554,9.503-19.013,20.885-37.19,21.782
		c-19.643-0.047-29.397-11.904-39.327-21.782c-9.554,9.501-18.935,20.83-37.108,21.729"/>
	<path display="inline" opacity="0.54" fill="#FFFFFF" d="M107.417,71.428L30.069,543.881c0,0-14.729,47.126,79.533,34.36
		c-19.528-6.866-71.678-4.903-60.534-61.277c9.516-48.14,75.362-445.258,75.362-445.258s2.208-35.307-37.413-18.768
		C100.918,54.019,108.918,59.667,107.417,71.428z"/>
	<circle display="inline" fill="#FFFFFF" stroke="#E0E31C" stroke-miterlimit="10" cx="185.207" cy="339.646" r="38.293"/>
	<path display="inline" fill="#FFFFFF" stroke="#E0E31C" stroke-miterlimit="10" d="M431.66,306.263
		c0,15.187-12.308,27.49-27.494,27.49c-15.186,0-27.489-12.304-27.489-27.49c0-15.186,12.304-27.494,27.489-27.494
		C419.353,278.769,431.66,291.077,431.66,306.263z"/>
	<path display="inline" fill="#FFFFFF" stroke="#E0E31C" stroke-miterlimit="10" d="M373.728,348.975
		c0,11.117-9.008,20.13-20.13,20.13c-11.113,0-20.125-9.013-20.125-20.13c0-11.118,9.012-20.126,20.125-20.126
		C364.72,328.849,373.728,337.856,373.728,348.975z"/>
	<circle display="inline" fill="#FFFFFF" stroke="#E0E31C" stroke-miterlimit="10" cx="261.304" cy="398.068" r="26.02"/>
	<path display="inline" fill="#FFFFFF" stroke="#E0E31C" stroke-miterlimit="10" d="M302.052,308.719
		c0,7.862-6.374,14.236-14.235,14.236c-7.862,0-14.24-6.374-14.24-14.236c0-7.861,6.378-14.24,14.24-14.24
		C295.678,294.479,302.052,300.857,302.052,308.719z"/>
	<path display="inline" fill="#FFFFFF" stroke="#E0E31C" stroke-miterlimit="10" d="M305.979,440.779
		c0,7.054-5.717,12.766-12.761,12.766c-7.054,0-12.766-5.712-12.766-12.766c0-7.049,5.712-12.765,12.766-12.765
		C300.262,428.015,305.979,433.73,305.979,440.779z"/>
	<path display="inline" fill="#FFFFFF" stroke="#E0E31C" stroke-miterlimit="10" d="M336.417,463.361
		c0,5.97-4.837,10.802-10.802,10.802c-5.961,0-10.803-4.832-10.803-10.802c0-5.961,4.842-10.798,10.803-10.798
		C331.58,452.563,336.417,457.4,336.417,463.361z"/>
	<path display="inline" fill="#FFFFFF" stroke="#E0E31C" stroke-miterlimit="10" d="M346.233,417.217
		c0,8.675-7.031,15.71-15.706,15.71c-8.679,0-15.715-7.035-15.715-15.71s7.036-15.711,15.715-15.711
		C339.202,401.506,346.233,408.542,346.233,417.217z"/>
	<path display="inline" fill="#FFFFFF" stroke="#E0E31C" stroke-miterlimit="10" d="M415.95,467.292
		c0,16.271-13.191,29.453-29.457,29.453s-29.458-13.183-29.458-29.453c0-16.27,13.192-29.457,29.458-29.457
		S415.95,451.022,415.95,467.292z"/>
	<circle display="inline" fill="#FFFFFF" stroke="#E0E31C" stroke-miterlimit="10" cx="261.304" cy="98.749" r="26.02"/>
	<path display="inline" fill="#FFFFFF" stroke="#E0E31C" stroke-miterlimit="10" d="M305.979,141.46
		c0,7.051-5.717,12.766-12.761,12.766c-7.054,0-12.766-5.714-12.766-12.766c0-7.049,5.712-12.763,12.766-12.763
		C300.262,128.697,305.979,134.412,305.979,141.46z"/>
	<path display="inline" fill="#FFFFFF" stroke="#E0E31C" stroke-miterlimit="10" d="M336.417,164.044
		c0,5.965-4.837,10.802-10.802,10.802c-5.961,0-10.803-4.837-10.803-10.802c0-5.963,4.842-10.8,10.803-10.8
		C331.58,153.244,336.417,158.081,336.417,164.044z"/>
	<path display="inline" fill="#FFFFFF" stroke="#E0E31C" stroke-miterlimit="10" d="M346.233,117.897
		c0,8.674-7.031,15.708-15.706,15.708c-8.679,0-15.715-7.034-15.715-15.708c0-8.677,7.036-15.71,15.715-15.71
		C339.202,102.187,346.233,109.22,346.233,117.897z"/>
	<path display="inline" fill="#FFFFFF" stroke="#E0E31C" stroke-miterlimit="10" d="M415.95,167.973
		c0,16.268-13.191,29.455-29.457,29.455s-29.458-13.188-29.458-29.455c0-16.27,13.192-29.458,29.458-29.458
		S415.95,151.703,415.95,167.973z"/>
	<path display="inline" opacity="0.66" fill="#FFFFFF" d="M70.046,31.171c0,0,6.874-9.45,12.766-10.8
		c5.89-1.351,424.175,0,424.175,0s16.395,0.704,15.706,16.201c-7.746-8.248-3.927-14.851-437.918-10.8
		C79.072,24.941,70.046,31.171,70.046,31.171z"/>
</g>
<g id="Layer_2" display="none">
	<g display="inline">
		<g>
			<path fill="#D1D3D4" stroke="#808285" stroke-miterlimit="10" d="M438.515,200.265l93.531,73.69
				c0,0,91.502-128.504,37.971-258.32l0,0c-139.061-25.566-241.058,98.322-241.058,98.322l87.72,69.108"/>
			<line fill="#939598" stroke="#808285" stroke-miterlimit="10" x1="570.017" y1="15.635" x2="451.029" y2="167.242"/>
			<polygon fill="#8B5E3C" points="150.676,576.076 122.762,554.084 415.662,182.308 454.961,161.863 443.58,204.295 			"/>
			<path fill="#8B5E3C" d="M165.127,579.607c-10.624,13.489-30.164,15.806-43.642,5.183c-13.484-10.625-15.801-30.159-5.182-43.644
				c10.624-13.483,30.163-15.801,43.643-5.182C173.43,546.589,175.747,566.128,165.127,579.607z"/>
		</g>
		<g>
			<polygon fill="#8B5E3C" points="511.895,553.959 474.918,583.437 86.628,96.244 123.61,66.773 			"/>
			<g>
				<polyline fill="#6D6E71" points="13.543,172.128 9.132,186.786 75.959,270.63 92.321,270.584 				"/>
				<polyline fill="#6D6E71" points="211.658,14.41 226.925,13.38 293.752,97.226 290.059,113.163 				"/>
				<polygon fill="#BCBEC0" points="290.21,113.065 92.133,270.929 13.507,172.204 211.585,14.335 				"/>
				<polygon fill="#D1D3D4" points="290.059,113.163 92.16,270.89 78.048,253.183 275.947,95.462 				"/>
				
					<rect x="-7.107" y="90.764" transform="matrix(0.782 -0.6233 0.6233 0.782 -37.5919 96.6853)" fill="#D1D3D4" width="253.063" height="22.639"/>
			</g>
			<path fill="#8B5E3C" d="M131.902,63.873c2.43,3.046,1.927,7.481-1.12,9.909L90.564,105.84c-3.048,2.424-7.486,1.925-9.912-1.119
				l0,0c-2.425-3.049-1.923-7.484,1.125-9.912l40.219-32.058C125.039,60.325,129.473,60.827,131.902,63.873L131.902,63.873z"/>
			<path fill="#8B5E3C" d="M518.126,548.467c2.429,3.044,1.927,7.481-1.121,9.91l-40.218,32.056
				c-3.048,2.426-7.486,1.924-9.911-1.124l0,0c-2.431-3.04-1.928-7.478,1.116-9.907l40.222-32.055
				C511.258,544.921,515.696,545.419,518.126,548.467L518.126,548.467z"/>
		</g>
	</g>
</g>
<g id="Layer_3">
	<g>
		<path fill="#F7941E" stroke="#000000" stroke-miterlimit="10" d="M300.562,564.339c29.662-1.552,86.372-7.425,144.694-22.978
			c-9.375-16.402,7.029-337.373,7.029-337.373s16.398,53.889,28.112,79.659c77.313,0,105.426-49.2,105.426-49.2L520.229,82.163
			L414.8,44.676c0,0-18.746,0-35.147-2.343c-7.026,10.542-56.23,19.768-80.393,23.721l0.072-0.036
			c-24.241-3.974-73.157-13.177-80.159-23.685c-16.401,2.343-35.143,2.343-35.143,2.343L78.601,82.163l-65.6,152.285
			c0,0,28.117,49.2,105.433,49.2c11.704-25.771,28.113-79.659,28.113-79.659s16.401,320.97,7.022,337.373
			c58.822,15.686,116.006,21.526,145.448,23.014L300.562,564.339z"/>
		<g>
			<path fill="#FFFFFF" stroke="#000000" d="M286.438,261.73v31.957H183.506l0.029-26.746c30.489-49.863,48.61-80.72,54.362-92.57
				c5.748-11.848,8.625-21.091,8.625-27.73c0-5.095-0.871-8.896-2.609-11.405c-1.74-2.507-4.387-3.763-7.941-3.763
				c-3.557,0-6.203,1.39-7.941,4.168c-1.74,2.779-2.609,8.298-2.609,16.557v17.831h-41.914v-6.832
				c0-10.497,0.539-18.775,1.621-24.836c1.08-6.059,3.743-12.021,7.989-17.889c4.245-5.865,9.764-10.305,16.558-13.315
				c6.791-3.011,14.936-4.516,24.43-4.516c18.602,0,32.67,4.613,42.203,13.836c9.533,9.225,14.301,20.899,14.301,35.025
				c0,10.73-2.684,22.077-8.049,34.041c-5.367,11.965-21.172,37.36-47.416,76.186H286.438z"/>
			<path fill="#FFFFFF" stroke="#000000" d="M392.497,187.455c7.101,2.396,12.389,6.314,15.862,11.759
				c3.474,5.446,5.211,18.208,5.211,38.287c0,14.905-1.699,26.471-5.095,34.695c-3.397,8.224-9.263,14.48-17.6,18.766
				c-8.336,4.286-19.028,6.43-32.072,6.43c-14.82,0-26.457-2.489-34.909-7.468c-8.452-4.979-14.01-11.075-16.673-18.294
				c-2.663-7.216-3.994-19.741-3.994-37.572v-14.821h46.776v30.452c0,8.105,0.481,13.257,1.447,15.457
				c0.965,2.2,3.106,3.3,6.427,3.3c3.627,0,6.021-1.389,7.179-4.168c1.157-2.779,1.736-10.034,1.736-21.768v-12.968
				c0-7.179-0.811-12.427-2.432-15.747c-1.621-3.318-4.015-5.5-7.179-6.542c-3.166-1.042-9.302-1.639-18.409-1.795V178.25
				c11.115,0,17.984-0.423,20.609-1.274c2.623-0.849,4.516-2.701,5.674-5.558c1.157-2.855,1.736-7.333,1.736-13.431v-10.42
				c0-6.56-0.677-10.884-2.026-12.968c-1.352-2.084-3.455-3.126-6.31-3.126c-3.242,0-5.462,1.1-6.658,3.3
				c-1.197,2.2-1.795,6.889-1.795,14.068v15.399h-46.776v-15.978c0-17.907,4.09-30.006,12.273-36.299
				c8.181-6.29,21.188-9.436,39.019-9.436c22.307,0,37.437,4.358,45.388,13.074c7.949,8.717,11.926,20.827,11.926,36.331
				c0,10.491-1.429,18.07-4.284,22.737C404.692,179.337,399.676,183.598,392.497,187.455z"/>
		</g>
	</g>
</g>
<g id="Layer_4" display="none">
	<g display="inline">
		<path fill="#9F1D20" d="M357.631,46.838c0,0,11.25-28.14,21.383-28.14c10.13,0,46.151,41.646,46.151,41.646L357.631,71.6V46.838z"
			/>
		<path fill="#C2B59B" stroke="#000000" stroke-miterlimit="10" d="M551.223,536.329c0,49.649-2.246,54.151-54.15,54.151H160.656
			l-20.258-13.507L119.14,590.48c-29.905,0-54.154-24.244-54.154-54.151V94.236c0-29.905,24.25-54.15,54.154-54.15l24.638,13.509
			l22.508-13.509h330.787c53.024,0,54.15,1.125,54.15,54.15V536.329z"/>
		<path fill="#754C29" stroke="#000000" stroke-miterlimit="10" d="M140.398,576.974L119.14,590.48
			c-29.905,0-54.154-24.244-54.154-54.151V94.236c0-29.905,24.25-54.15,54.154-54.15l24.638,13.509"/>
		<path fill="#BE1E2D" stroke="#000000" stroke-miterlimit="10" d="M364.381,34.425c0,0,5.634-22.51,29.267-22.51
			c23.638,0,66.409,0,66.409,0s16.882,10.127,16.882,21.383s0,175.59,0,175.59l-46.717-46.71l-45.583,45.583V41.18
			C384.639,41.18,380.143,17.542,364.381,34.425z"/>
		<g>
			<path fill="#FFFFFF" stroke="#754C29" stroke-miterlimit="10" d="M251.945,282.717l-10.178,87.902h-28.538
				c-2.613-13.505-4.918-28.87-6.918-46.096c-0.912,7.386-3.037,22.751-6.375,46.096h-28.375l-10.232-87.902h22.206l2.416,30.67
				l2.335,29.651c0.843-15.345,2.95-35.451,6.32-60.321h23.736c0.315,2.571,1.146,12.235,2.493,28.993l2.525,33.445
				c1.299-21.278,3.426-42.091,6.378-62.438H251.945z"/>
			<path fill="#FFFFFF" stroke="#754C29" stroke-miterlimit="10" d="M256.452,282.717h38.114v17.591h-15.256v16.668h14.279v16.723
				h-14.279v19.329h16.776v17.591h-39.635V282.717z"/>
			<path fill="#FFFFFF" stroke="#754C29" stroke-miterlimit="10" d="M302.656,282.717h22.804c7.202,0,12.659,0.561,16.37,1.683
				c3.709,1.121,6.705,3.391,8.985,6.809c2.28,3.419,3.42,8.925,3.42,16.521c0,5.137-0.806,8.718-2.416,10.743
				c-1.61,2.026-4.787,3.581-9.528,4.666c5.284,1.195,8.868,3.178,10.75,5.949c1.882,2.771,2.823,7.018,2.823,12.739v8.148
				c0,5.94-0.679,10.341-2.035,13.201c-1.357,2.861-3.521,4.816-6.488,5.867c-2.969,1.05-9.05,1.575-18.243,1.575h-26.441V282.717z
				 M325.515,297.756v19.546c0.977-0.036,1.737-0.055,2.28-0.055c2.243,0,3.673-0.552,4.289-1.656
				c0.615-1.104,0.923-4.262,0.923-9.474c0-2.75-0.254-4.678-0.76-5.782c-0.508-1.104-1.168-1.8-1.982-2.09
				C329.45,297.956,327.867,297.793,325.515,297.756z M325.515,330.984v24.596c3.221-0.109,5.274-0.615,6.162-1.521
				c0.887-0.904,1.33-3.131,1.33-6.679v-8.198c0-3.764-0.398-6.044-1.194-6.841C331.016,331.546,328.916,331.093,325.515,330.984z"
				/>
			<path fill="#FFFFFF" stroke="#754C29" stroke-miterlimit="10" d="M416.837,282.717v87.902h-21.935v-47.127
				c0-6.805-0.163-10.895-0.489-12.271c-0.325-1.375-1.222-2.416-2.688-3.122s-4.732-1.059-9.8-1.059h-2.172v-10.249
				c10.605-2.282,18.658-6.974,24.161-14.076H416.837z"/>
			<path fill="#FFFFFF" stroke="#754C29" stroke-miterlimit="10" d="M477.104,312.47v29.319c0,6.66-0.362,11.51-1.086,14.551
				c-0.725,3.04-2.226,5.883-4.506,8.524c-2.28,2.643-5.032,4.543-8.253,5.7c-3.223,1.158-6.823,1.738-10.805,1.738
				c-5.249,0-9.61-0.607-13.085-1.819s-6.244-3.104-8.307-5.674c-2.063-2.569-3.529-5.275-4.398-8.117
				c-0.868-2.841-1.303-7.356-1.303-13.546V312.47c0-8.071,0.696-14.116,2.09-18.134s4.162-7.239,8.308-9.665
				c4.144-2.424,9.166-3.638,15.066-3.638c4.813,0,9.121,0.842,12.922,2.525s6.642,3.738,8.524,6.162
				c1.882,2.426,3.157,5.158,3.828,8.199C476.769,300.96,477.104,305.811,477.104,312.47z M455.169,305.086
				c0-4.669-0.227-7.592-0.679-8.769c-0.453-1.176-1.512-1.764-3.177-1.764c-1.628,0-2.706,0.624-3.23,1.873
				c-0.524,1.249-0.787,4.136-0.787,8.66v42.893c0,5.104,0.244,8.181,0.733,9.229c0.488,1.051,1.547,1.575,3.176,1.575
				s2.696-0.615,3.203-1.846s0.761-4,0.761-8.308V305.086z"/>
			<path fill="#FFFFFF" stroke="#754C29" stroke-miterlimit="10" d="M518.802,282.717v87.902h-21.935v-47.127
				c0-6.805-0.163-10.895-0.489-12.271c-0.325-1.375-1.222-2.416-2.688-3.122s-4.732-1.059-9.8-1.059h-2.172v-10.249
				c10.605-2.282,18.658-6.974,24.161-14.076H518.802z"/>
		</g>
	</g>
</g>
</svg>
