<?xml version="1.0" encoding="utf-8"?>
<!-- Generator: Adobe Illustrator 15.0.2, SVG Export Plug-In  -->
<!DOCTYPE svg PUBLIC "-//W3C//DTD SVG 1.1//EN" "http://www.w3.org/Graphics/SVG/1.1/DTD/svg11.dtd" [
	<!ENTITY ns_flows "http://ns.adobe.com/Flows/1.0/">
]>
<svg version="1.1"
	 xmlns="http://www.w3.org/2000/svg" xmlns:xlink="http://www.w3.org/1999/xlink" xmlns:a="http://ns.adobe.com/AdobeSVGViewerExtensions/3.0/"
	 x="0px" y="0px" width="500px" height="500px" viewBox="-12.176 -12.43 500 500"
	 overflow="visible" enable-background="new -12.176 -12.43 500 500" xml:space="preserve">
<defs>
</defs>
<path fill="#FFFFFF" d="M0,184.699l134.146-0.474c0,0,17,0.942,17,17.473c0,16.537,0,217.275,0,217.275s2.37,16.525-17,16.525
	c-19.373,0-133.672,0-133.672,0L0,184.699z"/>
<path fill="#FFFFFF" d="M386.367,444.006H194.598c0,0-18.416-0.471-18.416-17.479c0-17.006,0-224.83,0-224.83
	s66.12-41.129,77.925-190.344c0,0,8.516-12.249,21.261-11.301c12.754,0.95,50.97,3.312,51.484,77.935
	c0.47,67.071-19.357,90.21-24.09,98.242c20.784,0,148.784,0.472,148.784,0.472s24.556,6.142,25.029,31.646
	c0.475,25.504-10.384,37.313-38.727,37.313c0,0,23.62,7.087,23.62,30.229c0,23.143-4.255,38.736-40.153,38.736
	c0,0,22.201,8.02,22.201,30.226c0,12.757-0.008,34.954-40.622,34.954c0,0,23.61,8.021,23.61,30.219
	C426.506,432.229,425.105,444.006,386.367,444.006z"/>
</svg>
