<?xml version="1.0" encoding="utf-8"?>
<!-- Generator: Adobe Illustrator 15.0.2, SVG Export Plug-In . SVG Version: 6.00 Build 0)  -->
<!DOCTYPE svg PUBLIC "-//W3C//DTD SVG 1.1//EN" "http://www.w3.org/Graphics/SVG/1.1/DTD/svg11.dtd">
<svg version="1.1" id="Layer_1" xmlns="http://www.w3.org/2000/svg" xmlns:xlink="http://www.w3.org/1999/xlink" x="0px" y="0px"
	 width="603px" height="601px" viewBox="0 0 603 601" enable-background="new 0 0 603 601" xml:space="preserve">
<path fill="#E1F3F8" d="M495.154,64.301l92.81,479.313c0,26.028-21.103,47.135-47.131,47.135H61.519
	c-26.028,0-47.131-21.106-47.131-47.135L94.547,64.301L83.418,64.39c-14.1,0-25.531-11.428-25.531-25.528l0,0
	c0-14.098,11.431-25.529,25.531-25.529h422.863c14.103,0,25.526,11.431,25.526,25.529l0,0c0,14.1-11.424,25.528-25.526,25.528
	l-8.591,0.022L495.154,64.301z"/>
<path fill="#8DC63F" d="M526.509,233.992c-19.641-0.047-29.395-11.904-39.326-21.782c-9.555,9.503-19.011,20.885-37.19,21.782
	c-19.646-0.047-29.399-11.904-39.327-21.782c-9.554,9.501-18.935,20.83-37.11,21.729l-0.666,0.053
	c-19.646-0.047-29.399-11.904-39.327-21.782c-9.559,9.503-19.015,20.885-37.194,21.782c-19.642-0.047-29.396-11.904-39.327-21.782
	c-9.554,9.501-18.931,20.83-37.105,21.729l-0.413,0.053c-19.646-0.047-29.396-11.904-39.327-21.782
	c-9.556,9.503-19.015,20.885-37.19,21.782c-19.643-0.047-29.399-11.904-39.327-21.782c-9.554,9.501-18.935,20.83-37.108,21.729
	l-1.291-0.398L13.424,543.614c0,26.028,21.1,47.135,47.131,47.135H539.87c26.028,0,47.131-21.106,47.131-47.135l-59.977-309.731
	L526.509,233.992z"/>
<path fill="none" stroke="#000000" stroke-miterlimit="10" d="M495.154,64.301l92.81,479.313c0,26.028-21.103,47.135-47.131,47.135
	H61.519c-26.028,0-47.131-21.106-47.131-47.135L94.547,64.301L83.418,64.39c-14.1,0-25.531-11.428-25.531-25.528l0,0
	c0-14.098,11.431-25.529,25.531-25.529h422.863c14.103,0,25.526,11.431,25.526,25.529l0,0c0,14.1-11.424,25.528-25.526,25.528
	l-8.591,0.022L495.154,64.301z"/>
<path fill="none" stroke="#000000" stroke-miterlimit="10" d="M527.295,233.992c-19.646-0.047-29.399-11.904-39.327-21.782
	c-9.559,9.503-19.015,20.885-37.194,21.782c-19.642-0.047-29.396-11.904-39.327-21.782c-9.554,9.501-18.935,20.83-37.105,21.729
	l-0.671,0.053c-19.646-0.047-29.399-11.904-39.331-21.782c-9.555,9.503-19.011,20.885-37.187,21.782
	c-19.646-0.047-29.399-11.904-39.331-21.782c-9.554,9.501-18.935,20.83-37.11,21.729l-0.408,0.053
	c-19.642-0.047-29.396-11.904-39.327-21.782c-9.554,9.503-19.013,20.885-37.19,21.782c-19.643-0.047-29.397-11.904-39.327-21.782
	c-9.554,9.501-18.935,20.83-37.108,21.729"/>
<path opacity="0.54" fill="#FFFFFF" d="M107.417,71.428L30.069,543.881c0,0-14.729,47.126,79.533,34.36
	c-19.528-6.866-71.678-4.903-60.534-61.277c9.516-48.14,75.362-445.258,75.362-445.258s2.208-35.307-37.413-18.768
	C100.918,54.019,108.918,59.667,107.417,71.428z"/>
<circle fill="#FFFFFF" stroke="#E0E31C" stroke-miterlimit="10" cx="185.207" cy="339.646" r="38.293"/>
<path fill="#FFFFFF" stroke="#E0E31C" stroke-miterlimit="10" d="M431.66,306.263c0,15.187-12.308,27.49-27.494,27.49
	c-15.186,0-27.489-12.304-27.489-27.49c0-15.186,12.304-27.494,27.489-27.494C419.353,278.769,431.66,291.077,431.66,306.263z"/>
<path fill="#FFFFFF" stroke="#E0E31C" stroke-miterlimit="10" d="M373.728,348.975c0,11.117-9.008,20.13-20.13,20.13
	c-11.113,0-20.125-9.013-20.125-20.13c0-11.118,9.012-20.126,20.125-20.126C364.72,328.849,373.728,337.856,373.728,348.975z"/>
<circle fill="#FFFFFF" stroke="#E0E31C" stroke-miterlimit="10" cx="261.304" cy="398.068" r="26.02"/>
<path fill="#FFFFFF" stroke="#E0E31C" stroke-miterlimit="10" d="M302.052,308.719c0,7.862-6.374,14.236-14.235,14.236
	c-7.862,0-14.24-6.374-14.24-14.236c0-7.861,6.378-14.24,14.24-14.24C295.678,294.479,302.052,300.857,302.052,308.719z"/>
<path fill="#FFFFFF" stroke="#E0E31C" stroke-miterlimit="10" d="M305.979,440.779c0,7.054-5.717,12.766-12.761,12.766
	c-7.054,0-12.766-5.712-12.766-12.766c0-7.049,5.712-12.765,12.766-12.765C300.262,428.015,305.979,433.73,305.979,440.779z"/>
<path fill="#FFFFFF" stroke="#E0E31C" stroke-miterlimit="10" d="M336.417,463.361c0,5.97-4.837,10.802-10.802,10.802
	c-5.961,0-10.803-4.832-10.803-10.802c0-5.961,4.842-10.798,10.803-10.798C331.58,452.563,336.417,457.4,336.417,463.361z"/>
<path fill="#FFFFFF" stroke="#E0E31C" stroke-miterlimit="10" d="M346.233,417.217c0,8.675-7.031,15.71-15.706,15.71
	c-8.679,0-15.715-7.035-15.715-15.71s7.036-15.711,15.715-15.711C339.202,401.506,346.233,408.542,346.233,417.217z"/>
<path fill="#FFFFFF" stroke="#E0E31C" stroke-miterlimit="10" d="M415.95,467.292c0,16.271-13.191,29.453-29.457,29.453
	s-29.458-13.183-29.458-29.453c0-16.27,13.192-29.457,29.458-29.457S415.95,451.022,415.95,467.292z"/>
<circle fill="#FFFFFF" stroke="#E0E31C" stroke-miterlimit="10" cx="261.304" cy="98.749" r="26.02"/>
<path fill="#FFFFFF" stroke="#E0E31C" stroke-miterlimit="10" d="M305.979,141.46c0,7.051-5.717,12.766-12.761,12.766
	c-7.054,0-12.766-5.714-12.766-12.766c0-7.049,5.712-12.763,12.766-12.763C300.262,128.697,305.979,134.412,305.979,141.46z"/>
<path fill="#FFFFFF" stroke="#E0E31C" stroke-miterlimit="10" d="M336.417,164.044c0,5.965-4.837,10.802-10.802,10.802
	c-5.961,0-10.803-4.837-10.803-10.802c0-5.963,4.842-10.8,10.803-10.8C331.58,153.244,336.417,158.081,336.417,164.044z"/>
<path fill="#FFFFFF" stroke="#E0E31C" stroke-miterlimit="10" d="M346.233,117.897c0,8.674-7.031,15.708-15.706,15.708
	c-8.679,0-15.715-7.034-15.715-15.708c0-8.677,7.036-15.71,15.715-15.71C339.202,102.187,346.233,109.22,346.233,117.897z"/>
<path fill="#FFFFFF" stroke="#E0E31C" stroke-miterlimit="10" d="M415.95,167.973c0,16.268-13.191,29.455-29.457,29.455
	s-29.458-13.188-29.458-29.455c0-16.27,13.192-29.458,29.458-29.458S415.95,151.703,415.95,167.973z"/>
<path opacity="0.66" fill="#FFFFFF" d="M70.046,31.171c0,0,6.874-9.45,12.766-10.8c5.89-1.351,424.175,0,424.175,0
	s16.395,0.704,15.706,16.201c-7.746-8.248-3.927-14.851-437.918-10.8C79.072,24.941,70.046,31.171,70.046,31.171z"/>
</svg>
