<?xml version="1.0" encoding="utf-8"?>
<!-- Generator: Adobe Illustrator 15.0.2, SVG Export Plug-In . SVG Version: 6.00 Build 0)  -->
<!DOCTYPE svg PUBLIC "-//W3C//DTD SVG 1.1//EN" "http://www.w3.org/Graphics/SVG/1.1/DTD/svg11.dtd">
<svg version="1.1" xmlns="http://www.w3.org/2000/svg" xmlns:xlink="http://www.w3.org/1999/xlink" x="0px" y="0px" width="603px"
	 height="601px" viewBox="0 0 603 601" enable-background="new 0 0 603 601" xml:space="preserve">
<g id="Layer_1">
</g>
<g id="Layer_4">
</g>
<g id="Layer_3">
	<g>
		<g>
			<path fill="#DCF5FF" stroke="#CCCCCC" stroke-miterlimit="10" d="M99.264,30.103c16.62,0,17.882,18.899,17.882,18.899v452.856
				c0,19.487,4.993,29.457,12.255,40.259c0,0,29.5,50.556,178.98,48.868c131.79-1.488,170.581-47.974,170.581-47.974
				c5.606-5.504,14.18-19.929,14.18-41.153V48.892c0,0-0.24-18.789,17.526-18.789c0,0,7.45-16.239-214.347-16.239
				c-221.798,0-194.288,12.036-197.727,14.328"/>
		</g>
		<path fill="#C2EEF9" d="M104,24c0,0,102-13,188-11s193,5,214,11c-13,4-139,12-205,11S112,35,104,24z"/>
		<g>
			<path fill="#C1C1C1" d="M513.639,21.126c-1.041-5.595-94.079-10.117-208.699-10.117c-115.267,0-208.709,4.572-208.709,10.212
				l0.822,2.249l14.016,2.385l1.552-0.948c31.677-3.667,105.858-6.239,192.319-6.239c86.396,0,160.533,2.569,192.249,6.23
				l5.655,0.404l9.074-2.308L513.639,21.126z"/>
			<path fill="#C1C1C1" d="M93.934,24.762c0,2.933,2.297,3.811,2.297,3.811c0,5.64,93.442,10.212,208.709,10.212
				s208.708-4.572,208.708-10.212c0,0,1.962-0.921,1.68-3.93c-0.283-3.009-1.519-3.771-1.688-3.825
				c-0.029-0.01,0.009,0.063,0.009,0.096c0,5.641-93.441,10.211-208.708,10.211S96.23,26.554,96.23,20.913
				C96.23,20.913,93.934,21.52,93.934,24.762z"/>
		</g>
		<g>
			<defs>
				<path id="SVGID_1_" d="M98.264,30.103c16.62,0,17.882,18.899,17.882,18.899v452.856c0,19.487,4.993,29.457,12.255,40.259
					c0,0,29.5,50.556,178.98,48.868c131.79-1.488,170.581-47.974,170.581-47.974c5.606-5.504,14.18-19.929,14.18-41.153V48.892
					c0,0-0.24-18.789,17.526-18.789c0,0,7.45-16.239-214.347-16.239c-221.798,0-194.288,12.036-197.727,14.328"/>
			</defs>
			<clipPath id="SVGID_2_">
				<use xlink:href="#SVGID_1_"  overflow="visible"/>
			</clipPath>
			<path opacity="0.82" clip-path="url(#SVGID_2_)" fill="#6BF782" stroke="#CCCCCC" stroke-miterlimit="10" d="M68.665,185.123
				c244.394-35.05,197.575,56.781,410.211-25.529c212.636-82.31,62.199,351.015,62.429,355.008
				c0.229,3.994-92.801,93.467-104.609,97.149c-11.809,3.682-236.153,21.557-248.248,20.246
				c-12.095-1.31-172.96-64.202-172.305-70.249c0.655-6.048,21.477-149.476,22.304-152.527
				C39.272,406.168,68.665,185.123,68.665,185.123z"/>
			<path opacity="0.66" clip-path="url(#SVGID_2_)" fill="#FFFFFF" d="M500.035,32.508c0,0-1.719,3.611-1.719,8.425
				c0,4.815,0,501.288,0,501.288s-14.328,25.275-40.118,36.107c0-43.328,0-536.191,0-539.2S500.035,32.508,500.035,32.508z"/>
			<circle opacity="0.38" clip-path="url(#SVGID_2_)" fill="#FFFFFF" cx="175.5" cy="205.5" r="20.5"/>
			<circle opacity="0.38" clip-path="url(#SVGID_2_)" fill="#FFFFFF" cx="316.5" cy="321.5" r="20.5"/>
			<circle opacity="0.38" clip-path="url(#SVGID_2_)" fill="#FFFFFF" cx="231.5" cy="247.5" r="14.5"/>
			<circle opacity="0.38" clip-path="url(#SVGID_2_)" fill="#FFFFFF" cx="178.5" cy="71.5" r="14.5"/>
			<circle opacity="0.38" clip-path="url(#SVGID_2_)" fill="#FFFFFF" cx="282" cy="249" r="12"/>
			<circle opacity="0.38" clip-path="url(#SVGID_2_)" fill="#FFFFFF" cx="314.5" cy="215.5" r="14.5"/>
			<circle opacity="0.38" clip-path="url(#SVGID_2_)" fill="#FFFFFF" cx="238" cy="128" r="14.5"/>
			<circle opacity="0.38" clip-path="url(#SVGID_2_)" fill="#FFFFFF" cx="303.927" cy="392.259" r="17.62"/>
			<circle opacity="0.38" clip-path="url(#SVGID_2_)" fill="#FFFFFF" cx="172.108" cy="380.176" r="17.619"/>
			<circle opacity="0.38" clip-path="url(#SVGID_2_)" fill="#FFFFFF" cx="226.55" cy="396.706" r="12.462"/>
			<circle opacity="0.38" clip-path="url(#SVGID_2_)" fill="#FFFFFF" cx="237.157" cy="346.852" r="10.313"/>
			<circle opacity="0.38" clip-path="url(#SVGID_2_)" fill="#FFFFFF" cx="191.811" cy="318.599" r="12.462"/>
			<circle opacity="0.38" clip-path="url(#SVGID_2_)" fill="#FFFFFF" cx="328.5" cy="174.5" r="20.5"/>
			<circle opacity="0.38" clip-path="url(#SVGID_2_)" fill="#FFFFFF" cx="364.5" cy="128.5" r="20.5"/>
			<circle opacity="0.38" clip-path="url(#SVGID_2_)" fill="#FFFFFF" cx="273.5" cy="58.5" r="15.5"/>
			<circle opacity="0.38" clip-path="url(#SVGID_2_)" fill="#FFFFFF" cx="469.5" cy="290.5" r="20.5"/>
			<circle opacity="0.38" clip-path="url(#SVGID_2_)" fill="#FFFFFF" cx="384.5" cy="216.5" r="14.5"/>
			<circle opacity="0.38" clip-path="url(#SVGID_2_)" fill="#FFFFFF" cx="435" cy="218" r="12"/>
			<circle opacity="0.38" clip-path="url(#SVGID_2_)" fill="#FFFFFF" cx="480.5" cy="190.5" r="14.5"/>
			<circle opacity="0.38" clip-path="url(#SVGID_2_)" fill="#FFFFFF" cx="456.927" cy="361.259" r="17.62"/>
			<circle opacity="0.38" clip-path="url(#SVGID_2_)" fill="#FFFFFF" cx="337" cy="362" r="13.669"/>
			<circle opacity="0.38" clip-path="url(#SVGID_2_)" fill="#FFFFFF" cx="379.55" cy="365.706" r="12.462"/>
			<circle opacity="0.38" clip-path="url(#SVGID_2_)" fill="#FFFFFF" cx="390.157" cy="315.852" r="10.313"/>
			<circle opacity="0.38" clip-path="url(#SVGID_2_)" fill="#FFFFFF" cx="344.811" cy="287.599" r="12.462"/>
			
				<ellipse clip-path="url(#SVGID_2_)" fill="#FFFFFF" stroke="#CCCCCC" stroke-miterlimit="10" cx="-986" cy="-278.5" rx="5" ry="4.5"/>
			<path clip-path="url(#SVGID_2_)" fill="#6BF782" stroke="#CCCCCC" stroke-miterlimit="10" d="M687,226"/>
		</g>
		<path fill="#69D7F9" d="M167.369,498.15c0,0,61.897-32.668,115.77-23.498C251.618,476.372,212.072,478.665,167.369,498.15z"/>
		<path fill="#FFFFFF" d="M134.701,490.127c0,0-13.182-3.438-13.182-12.608s0-428.694,0-428.694s0.455-8.194-9.521-15.052
			c6.877,2.866,13.271,2.672,12.959,24.794c-0.161,11.461,0,420.098,0,420.098S124.353,483.788,134.701,490.127z"/>
		<g>
			<defs>
				<path id="SVGID_3_" d="M99.264,30.103c16.62,0,17.882,18.899,17.882,18.899v452.856c0,19.487,4.993,29.457,12.255,40.259
					c0,0,29.5,50.556,178.98,48.868c131.79-1.488,170.581-47.974,170.581-47.974c5.606-5.504,14.18-19.929,14.18-41.153V48.892
					c0,0-0.24-18.789,17.526-18.789c0,0,7.45-16.239-214.347-16.239c-221.798,0-194.288,12.036-197.727,14.328"/>
			</defs>
			<clipPath id="SVGID_4_">
				<use xlink:href="#SVGID_3_"  overflow="visible"/>
			</clipPath>
			<rect x="115.788" y="-27.974" opacity="0.11" clip-path="url(#SVGID_4_)" fill="#DCFCFF" width="132.964" height="636.163"/>
			<rect x="219.523" y="-27.974" opacity="0.06" clip-path="url(#SVGID_4_)" fill="#94FAFF" width="132.964" height="636.163"/>
			<rect x="327.27" y="-27.974" opacity="0.06" clip-path="url(#SVGID_4_)" fill="#24F5FF" width="132.964" height="636.163"/>
			<rect x="442.467" y="-27.974" opacity="0.06" clip-path="url(#SVGID_4_)" fill="#B7F6F9" width="132.964" height="636.163"/>
		</g>
		<path fill="#69D7F9" d="M121.153,482.877c0,0,8.875,16.372,23.291,9.543c45.747-21.672,68.779-22.383,127.146-31
			c-34.286,4.664-179.359,36.384-127.146,86.02c0,0-25.217-13.755-13.755-44.704C124.186,500.137,121.153,482.877,121.153,482.877z"
			/>
		<path fill="#00B1F7" d="M528.617,530.457"/>
		<path fill="#69D7F9" d="M260.163,467.483c0,0,79.533-11.663,167.696,12.594c5.365,1.4,68.34,17.727,58.285,48.382
			c-5.106-15.728-12.104-29.956-85.806-48.382C362.087,471.915,355.557,469.35,260.163,467.483z"/>
		<path fill="#00B1F7" d="M394.04,484.51"/>
		<g>
			<g>
				<path fill="#C1C1C1" d="M487.743,160.011c-31.845,7.143-64.962,7.251-97.423,8.074c-0.006-3.708-0.008-5.552-0.008-9.22
					c32.469-0.954,65.53-1.169,97.431-8.023C487.743,154.509,487.743,156.343,487.743,160.011z"/>
				<path fill="#C1C1C1" d="M487.743,182.936c-13.71,3.477-27.584,5.079-41.629,6.448c0.016-3.793,0.024-5.686,0.043-9.463
					c14.014-1.313,27.874-2.851,41.586-6.155C487.743,177.434,487.743,179.268,487.743,182.936z"/>
				<path fill="#C1C1C1" d="M487.743,208.152c-31.337,9.218-64.797,9.237-97.166,9.748c-0.031-3.871-0.046-5.8-0.073-9.646
					c32.392-0.525,65.776-0.511,97.239-9.271C487.743,202.651,487.743,204.484,487.743,208.152z"/>
				<path fill="#C1C1C1" d="M487.743,231.077c-13.626,4.589-27.564,6.7-41.769,8.533c0.007-3.854,0.01-5.781,0.018-9.626
					c14.173-1.726,28.101-3.721,41.751-8.078C487.743,225.575,487.743,227.409,487.743,231.077z"/>
				<path fill="#C1C1C1" d="M487.743,255.148c-30.509,11.803-64.42,12.32-96.67,12.961c-0.044-3.955-0.067-5.93-0.11-9.874
					c32.271-0.594,66.089-0.978,96.78-12.257C487.743,249.646,487.743,251.48,487.743,255.148z"/>
				<path fill="#C1C1C1" d="M487.743,278.073c-13.444,5.881-27.445,8.644-41.822,11.105c0.003-3.878,0.005-5.817,0.008-9.693
					c14.342-2.332,28.327-4.962,41.814-10.583C487.743,272.571,487.743,274.405,487.743,278.073z"/>
				<path fill="#C1C1C1" d="M487.743,303.291c-29.411,14.575-63.915,15.918-96.067,16.887c-0.046-3.966-0.069-5.95-0.116-9.92
					c32.175-0.906,66.542-2.084,96.184-16.137C487.743,297.789,487.743,299.623,487.743,303.291z"/>
				<path fill="#C1C1C1" d="M487.743,326.215c-13.194,7.227-27.285,10.677-41.865,13.817c0.005-3.865,0.007-5.798,0.011-9.669
					c14.539-3.017,28.611-6.34,41.854-13.318C487.743,320.713,487.743,322.547,487.743,326.215z"/>
				<path fill="#C1C1C1" d="M487.743,351.435c-28.259,17.059-63.405,19.233-95.521,20.45c-0.036-3.9-0.053-5.855-0.091-9.774
					c32.119-1.193,67.136-3.227,95.611-19.846C487.743,345.933,487.743,347.767,487.743,351.435z"/>
				<path fill="#C1C1C1" d="M487.743,374.357c-13.65,7.776-26.743,12.326-41.974,16.127c0.013-3.816,0.019-5.728,0.029-9.556
					c15.163-3.707,28.283-8.166,41.944-15.741C487.743,368.855,487.743,370.689,487.743,374.357z"/>
				<path fill="#C1C1C1" d="M487.743,398.428c-27.235,18.932-63.12,21.562-95.185,22.623c-0.015-3.762-0.024-5.651-0.044-9.446
					c32.078-1.137,67.812-3.728,95.229-22.347C487.743,392.926,487.743,394.76,487.743,398.428z"/>
				<path fill="#C1C1C1" d="M487.743,421.354c-13.636,8.598-26.637,13.42-42.207,17.522c0.025-3.732,0.036-5.604,0.059-9.354
					c15.503-4.074,28.518-8.871,42.148-17.338C487.743,415.852,487.743,417.686,487.743,421.354z"/>
			</g>
		</g>
		<g>
			<path fill="#727272" d="M297.766,218.426c-48.333,0.291-96.403,0.167-144.527-4.901c-11.39-1.33-22.806,6.078-22.981,18.235
				c0,44.63,0,89.26,0,133.89c0.419,12.492,8.681,25.28,20.5,29.818c48.074,14.771,96.948,13.365,146.684,12.27
				c12.016-0.384,21.777-9.923,21.946-22.033c0-48.523,0-97.048,0-145.572C319.23,228.222,309.717,218.555,297.766,218.426z
				 M232.973,339.607c-7.103,4.521-13.383,7.427-18.812,8.771c-5.429,1.345-11.843,1.674-19.211,0.814
				c-9.071-1.058-16.39-3.796-22.001-7.836c-5.613-4.041-9.91-9.41-12.927-15.882c-3.018-6.474-4.482-13.401-4.366-20.822
				c0.122-7.808,1.949-14.241,5.511-19.501c3.562-5.259,8.738-9.011,15.461-11.32c5.235-1.798,12.27-2.312,21.011-1.71
				c8.429,0.58,14.69,1.589,18.823,3.26c4.132,1.671,7.539,4.118,10.226,7.372c2.688,3.253,4.681,7.332,5.984,12.241
				c-9.101,1.436-13.658,2.093-22.784,3.172c-0.877-2.883-2.417-5.137-4.621-6.777c-2.204-1.64-5.04-2.578-8.51-2.852
				c-5.173-0.408-9.339,0.94-12.492,4.077c-3.153,3.138-4.809,8.4-4.97,15.876c-0.171,7.945,1.258,13.854,4.286,17.707
				c3.027,3.852,7.315,6.151,12.875,6.731c2.64,0.275,5.17,0.135,7.587-0.41c2.417-0.546,5.193-1.613,8.33-3.226
				c0.058-2.828,0.087-4.24,0.145-7.065c-6.324-0.387-9.483-0.63-15.798-1.243c0.137-6.192,0.204-9.282,0.341-15.472
				c12.121,1.057,24.282,1.631,36.445,1.872C233.328,318.126,233.151,328.866,232.973,339.607z M283.245,312.242
				c-2.497-1.001-4.475-1.491-5.933-1.471c-2.779,0.038-4.936,1.22-6.484,3.504c-2.192,3.234-3.357,9.252-3.428,18.068
				c-0.059,7.385-0.088,11.079-0.146,18.487c-8.607,0.062-12.916,0.078-21.524-0.025c0.246-18.312,0.492-36.626,0.737-54.938
				c7.909,0.027,11.863-0.001,19.771-0.089c-0.03,3.608-0.045,5.411-0.075,9.016c1.939-3.922,3.923-6.634,5.958-8.13
				c2.034-1.497,4.539-2.271,7.515-2.318c3.114-0.049,6.517,0.867,10.219,2.746C287.218,303.156,285.897,306.187,283.245,312.242z"
				/>
		</g>
	</g>
</g>
<g id="Layer_2">
</g>
</svg>
