<?xml version="1.0" encoding="utf-8"?>
<!-- Generator: Adobe Illustrator 15.0.2, SVG Export Plug-In . SVG Version: 6.00 Build 0)  -->
<!DOCTYPE svg PUBLIC "-//W3C//DTD SVG 1.1//EN" "http://www.w3.org/Graphics/SVG/1.1/DTD/svg11.dtd">
<svg version="1.1" id="Layer_1" xmlns="http://www.w3.org/2000/svg" xmlns:xlink="http://www.w3.org/1999/xlink" x="0px" y="0px"
	 width="603px" height="601px" viewBox="0 0 603 601" enable-background="new 0 0 603 601" xml:space="preserve">
<g>
	<polygon fill="#262626" points="590.23,392.087 536.738,353.496 542.021,418.052 	"/>
	<path fill="#FFFFFF" stroke="#262626" stroke-miterlimit="10" d="M586.199,326.562c0,0-22.088,34.312-2.178,72.7
		c-26.065,16.659-317.896,135.122-317.896,135.122s-59.003,5.489-54.295-39.612c1.018-9.745,9.333-24.6,22.237-29.983
		c77.179-32.205,339.478-133.147,339.478-133.147L586.199,326.562z"/>
	<path fill="#262626" d="M598.56,320.37l-1.411,5.36L244.137,461.104c0,0-37.256,15.781-29.75,51.287
		c1.922,8.2,19.981,35.271,78.731,11.148c58.75-24.122,297.112-131.452,297.112-131.452l-0.177,7.791L279.886,534.15
		c0,0-65.524,25.009-75.236-27.697c-9.711-52.705,20.908-50.969,45.047-61.33C273.837,434.761,600.337,319.91,598.56,320.37z"/>
	<g>
		
			<linearGradient id="SVGID_1_" gradientUnits="userSpaceOnUse" x1="254.7949" y1="58.8208" x2="335.9705" y2="571.3433" gradientTransform="matrix(1 0 0 -1 0 602)">
			<stop  offset="0" style="stop-color:#753200"/>
			<stop  offset="0.3313" style="stop-color:#733200"/>
			<stop  offset="1" style="stop-color:#733000;stop-opacity:0.73"/>
		</linearGradient>
		<path fill="url(#SVGID_1_)" d="M281.895,533.308c-26.725,5.928-64.662,9.188-72.974-24.71
			c-7.689-32.662,30.182-53.997,55.9-62.685c15.481-6.049,30.938-12.163,46.47-18.082c95.562-36.541,192.376-69.85,287.523-107.463
			C542,272.452,484.025,224.512,440.735,163.406c-31.349-44.25-50.689-94.506-92.384-130.788
			C243.02,57.543,145.032,104.927,36.725,118.469c-35.967,12.599-33.478,50.396-21.44,80.11
			c15.896,28.391,32.972,56.019,50.653,83.327c51.56,79.63,95.344,170.353,144.33,244.814c9.311,14.153,31.139,15.006,46.885,13.763
			C281.131,538.589,281.895,533.308,281.895,533.308z"/>
	</g>
	<path fill="#592513" d="M21.379,189.997c0,0,2.033-43.06,29.94-45.053C46.494,149.041,30.528,157.613,21.379,189.997z"/>
	<path fill="#592513" d="M27.922,202.763c0,0,2.033-43.06,29.94-45.053C53.037,161.806,37.071,170.379,27.922,202.763z"/>
	<path fill="#592513" d="M181.328,460.695c0,0,2.033-43.062,29.94-45.053C206.443,419.738,190.477,428.312,181.328,460.695z"/>
	<path fill="#592513" d="M187.871,473.461c0,0,2.033-43.06,29.94-45.053C212.986,432.504,197.02,441.077,187.871,473.461z"/>
	<g>
		<g>
			<path fill="#4D1800" stroke="#230B01" stroke-miterlimit="10" d="M123.941,184.469c-0.723-1.019-1.084-1.53-1.808-2.549
				c8.95-4.228,13.472-6.193,22.591-9.939c0.725,1.04,1.086,1.561,1.81,2.6c-1.538,0.629-2.306,0.947-3.839,1.588
				c-1.098,0.458-1.73,0.977-1.896,1.551c-0.167,0.576,0.055,1.299,0.662,2.17c7.104,10.159,14.158,20.354,21.144,30.595
				c0.85,1.247,1.6,1.958,2.251,2.135c0.651,0.177,1.753-0.043,3.307-0.653c2.544-1,3.817-1.49,6.371-2.464
				c2.377-0.906,3.887-2.799,4.526-5.689c0.638-2.889-0.054-6.863-2.099-11.93c1.088-0.401,1.633-0.601,2.723-0.998
				c3.911,6.547,5.854,9.82,9.719,16.381c-13.069,4.811-25.986,9.858-38.818,15.27c-0.708-1.028-1.061-1.541-1.77-2.567
				c1.533-0.669,2.3-1,3.837-1.656c0.847-0.362,1.35-0.837,1.505-1.427c0.156-0.59-0.021-1.255-0.53-1.994
				c-7.19-10.451-14.449-20.854-21.753-31.226c-0.53-0.753-1.139-1.199-1.823-1.338c-0.684-0.139-1.568,0.038-2.652,0.536
				C126.012,183.5,125.321,183.821,123.941,184.469z"/>
			<path fill="#4D1800" stroke="#230B01" stroke-miterlimit="10" d="M166.088,163.682c13.146-4.742,26.351-9.248,39.625-13.616
				c4.321,5.801,6.468,8.69,10.729,14.461c-1.085,0.354-1.627,0.533-2.712,0.889c-2.944-3.265-5.415-5.509-7.396-6.727
				c-1.979-1.216-4.004-1.949-6.07-2.197c-2.066-0.247-4.355,0.047-6.862,0.89c-2.492,0.836-3.736,1.257-6.222,2.106
				c-0.964,0.33-1.542,0.746-1.734,1.245c-0.192,0.5-0.077,1.062,0.347,1.688c3.952,5.842,5.916,8.755,9.819,14.581
				c0.845-0.289,1.267-0.433,2.112-0.721c2.429-0.828,3.886-2.105,4.365-3.845c0.479-1.739-0.112-4.079-1.786-7.028
				c1.108-0.37,1.662-0.557,2.771-0.925c5.242,7.84,7.84,11.749,12.993,19.568c-1.101,0.367-1.652,0.55-2.753,0.918
				c-2.321-3.177-4.604-5.204-6.832-6.078c-2.229-0.873-4.703-0.852-7.416,0.071c-0.697,0.237-1.046,0.357-1.743,0.595
				c4.153,6.21,6.216,9.312,10.318,15.525c0.451,0.682,0.985,1.097,1.595,1.231c0.917,0.201,1.995,0.087,3.213-0.325
				c2.167-0.734,3.25-1.099,5.42-1.829c3.718-1.249,6.035-3.372,6.949-6.374c0.913-3.001,0.198-6.827-2.171-11.487
				c1.105-0.364,1.659-0.546,2.764-0.91c3.934,6.486,5.885,9.726,9.766,16.209c-13.639,4.549-27.254,9.15-40.826,13.897
				c-0.7-1.054-1.049-1.583-1.75-2.636c1.609-0.572,2.414-0.854,4.025-1.421c0.909-0.319,1.457-0.778,1.643-1.379
				c0.187-0.601,0.034-1.27-0.456-2.007c-7.166-10.792-14.409-21.532-21.701-32.239c-0.463-0.681-1.044-1.097-1.743-1.247
				c-0.698-0.15-1.667-0.001-2.909,0.448c-1.428,0.517-2.142,0.776-3.567,1.3C167.173,165.262,166.811,164.736,166.088,163.682z"/>
			<path fill="#4D1800" stroke="#230B01" stroke-miterlimit="10" d="M236.961,138.806c13.767,10.554,27.53,21.113,41.295,31.669
				c1.148,0.867,2.123,1.383,2.923,1.551c0.801,0.169,1.664,0.086,2.588-0.247c0.651-0.235,0.978-0.354,1.629-0.59
				c0.656,1.03,0.983,1.544,1.638,2.573c-8.343,3.051-12.547,4.526-20.975,7.43c-0.669-1.044-1.004-1.566-1.674-2.61
				c0.791-0.271,1.186-0.407,1.976-0.679c1.561-0.537,2.531-1.066,2.915-1.587c0.384-0.52,0.409-1.041,0.073-1.563
				c-0.263-0.41-0.69-0.844-1.281-1.303c-3.357-2.591-5.042-3.892-8.429-6.503c-6.773,2.276-10.17,3.397-16.964,5.635
				c0.276,1.627,0.413,2.441,0.688,4.069c0.28,1.695,0.655,2.901,1.12,3.618c0.795,1.226,1.928,2.06,3.4,2.497
				c1.472,0.437,3.054,0.372,4.744-0.197c0.575-0.193,0.862-0.289,1.436-0.482c0.676,1.05,1.015,1.574,1.69,2.624
				c-6.844,2.314-10.274,3.456-17.131,5.74c-0.684-1.055-1.026-1.583-1.711-2.639c0.392-0.13,0.588-0.196,0.98-0.326
				c1.103-0.366,1.865-1.011,2.286-1.931c0.595-1.3,0.764-2.769,0.499-4.401c-2.371-13.753-4.771-27.5-7.205-41.242
				C234.868,139.468,235.565,139.248,236.961,138.806z M238.986,151.044c1.271,7.343,1.898,11.01,3.146,18.348
				c5.794-1.902,8.69-2.856,14.471-4.783C249.617,159.223,246.094,156.509,238.986,151.044z"/>
			<path fill="#4D1800" stroke="#230B01" stroke-miterlimit="10" d="M263.753,131.474c9.538-3.122,14.289-4.706,23.696-7.984
				c3.818-1.331,7.201-1.991,10.153-1.975c2.953,0.017,5.485,0.551,7.607,1.618c2.121,1.065,3.761,2.503,4.93,4.324
				c1.865,2.911,1.922,5.828,0.193,8.762c-1.314,2.232-8.458,6.618-8.458,6.618c0.007,0.02,4.649-0.669,6.36-0.405
				c1.711,0.265,3.508,0.942,5.383,2.027c2.466,1.427,4.955,3.309,7.414,5.651c1.574,1.5,2.682,2.401,3.328,2.683
				s1.199,0.322,1.662,0.121c1.273-0.554,1.063-2.421-0.635-5.601c1.021-0.44,1.529-0.662,2.547-1.106
				c1.87,3.336,2.545,6.016,2.035,8.045c-0.509,2.032-2.037,3.622-4.605,4.74c-1.832,0.798-3.528,1.084-5.084,0.865
				c-1.555-0.22-3.053-0.899-4.484-1.976c-0.827-0.623-2.477-2.222-4.912-4.819c-2.848-3.036-4.941-5.036-6.266-5.964
				c-1.322-0.928-2.633-1.498-3.928-1.705s-2.635-0.054-4.016,0.459c-1.31,0.486-1.965,0.727-3.278,1.208
				c3.826,5.966,5.721,8.938,9.488,14.863c0.415,0.653,0.948,1.083,1.574,1.25c0.861,0.231,1.718,0.175,2.507-0.137
				c1.586-0.627,2.376-0.943,3.956-1.579c0.636,1.002,0.954,1.502,1.589,2.503c-8.812,3.586-13.276,5.298-22.262,8.623
				c-0.653-1.026-0.979-1.54-1.634-2.566c1.395-0.512,2.091-0.769,3.482-1.286c0.899-0.334,1.441-0.802,1.627-1.405
				c0.185-0.602,0.031-1.286-0.459-2.055c-6.562-10.302-13.171-20.573-19.82-30.818c-0.555-0.854-1.178-1.409-1.869-1.665
				c-0.69-0.256-1.436-0.254-2.236,0.012c-1.551,0.516-2.329,0.774-3.882,1.287C264.776,133.042,264.435,132.519,263.753,131.474z
				 M291.813,144.595c1.509-0.548,2.263-0.825,3.767-1.38c3.327-1.226,5.464-2.991,6.376-5.24c0.688-1.702,0.138-3.959-1.652-6.746
				c-1.651-2.569-3.578-4.19-5.779-4.868c-2.202-0.678-5.074-0.393-8.627,0.844c-1.909,0.665-2.99,1.268-3.233,1.814
				s0.058,1.475,0.903,2.782C286.892,136.94,288.54,139.497,291.813,144.595z"/>
			<path fill="#4D1800" stroke="#230B01" stroke-miterlimit="10" d="M313.066,114.114c5.451-2.104,8.152-3.178,13.5-5.385
				c12.785,5.239,25.599,10.338,38.673,14.821c-4.229-6.671-6.363-10.033-10.689-16.833c-1.067-1.677-2.461-2.763-4.186-3.268
				c-1.726-0.505-3.625-0.354-5.708,0.453c-0.6-0.938-0.897-1.407-1.498-2.348c6.104-2.77,9.111-4.196,15.003-7.146
				c0.577,0.907,0.866,1.361,1.44,2.265c-1.922,1.235-3.057,2.523-3.373,3.876c-0.317,1.354,0.094,2.928,1.225,4.708
				c5.889,9.266,11.77,18.538,17.646,27.811c-1.205,0.736-1.811,1.101-3.024,1.826c-14.826-4.881-29.397-10.521-43.786-16.563
				c5.38,8.422,8.027,12.586,13.27,20.859c1.5,2.369,3.187,3.805,5.049,4.295c1.863,0.491,3.66,0.29,5.395-0.596
				c0.275-0.142,0.413-0.211,0.688-0.353c0.592,0.934,0.888,1.4,1.477,2.332c-6.57,3.424-9.92,5.066-16.707,8.235
				c-0.609-0.964-0.913-1.447-1.523-2.413c0.469-0.215,0.703-0.322,1.17-0.539c1.666-0.775,2.682-2.038,3.056-3.771
				c0.373-1.733-0.033-3.539-1.228-5.424c-5.25-8.279-10.509-16.553-15.799-24.807c-2.3-1.018-4.478-1.128-6.521-0.321
				c-0.78,0.308-1.17,0.46-1.952,0.766C314.023,115.603,313.705,115.107,313.066,114.114z"/>
			<path fill="#4D1800" stroke="#230B01" stroke-miterlimit="10" d="M169.539,249.607c12.654-5.233,25.478-10.044,38.384-14.618
				c4.56,6.287,6.828,9.443,11.351,15.789c-1.085,0.384-1.626,0.577-2.711,0.963c-2.843-3.235-5.395-5.631-7.654-7.2
				c-2.258-1.567-4.304-2.521-6.132-2.859c-1.828-0.338-3.517-0.222-5.065,0.348c-0.894,0.328-1.434,0.749-1.621,1.254
				c-0.188,0.507-0.064,1.092,0.369,1.759c7.13,10.95,14.162,21.965,21.108,33.032c0.403,0.644,0.934,1.098,1.594,1.36
				c0.66,0.263,1.275,0.291,1.846,0.083c1.983-0.721,2.974-1.08,4.96-1.795c0.68,1.089,1.021,1.635,1.7,2.727
				c-9.343,3.364-14.002,5.062-23.261,8.617c-0.685-1.087-1.027-1.63-1.713-2.715c1.874-0.721,2.812-1.079,4.689-1.789
				c0.704-0.267,1.137-0.675,1.296-1.229c0.16-0.554,0.033-1.163-0.385-1.824c-6.929-10.983-13.95-21.908-21.067-32.77
				c-0.497-0.759-1.078-1.237-1.737-1.433c-0.66-0.196-1.444-0.117-2.351,0.236c-5.027,1.958-5.49,7.72-1.453,17.303
				c-1.032,0.416-1.549,0.627-2.58,1.048C175.291,259.342,173.38,256.085,169.539,249.607z"/>
			<path fill="#4D1800" stroke="#230B01" stroke-miterlimit="10" d="M213.798,232.917c8.22-2.883,12.346-4.292,20.601-7.114
				c0.68,1.064,1.018,1.599,1.697,2.664c-1.216,0.417-1.822,0.624-3.038,1.041c-0.863,0.296-1.39,0.699-1.579,1.206
				c-0.188,0.506-0.088,1.068,0.302,1.681c3.548,5.567,5.315,8.357,8.84,13.959c6.747-2.341,10.125-3.508,16.873-5.872
				c-3.309-5.292-4.967-7.93-8.298-13.197c-0.639-1.01-1.312-1.639-2.017-1.885c-0.705-0.246-1.59-0.186-2.654,0.179
				c-1.036,0.355-1.555,0.533-2.591,0.888c-0.677-1.065-1.015-1.597-1.692-2.662c8.27-2.825,12.411-4.233,20.669-7.107
				c0.668,1.058,1.003,1.587,1.67,2.645c-1.106,0.387-1.66,0.579-2.767,0.964c-1.062,0.37-1.694,0.82-1.895,1.353
				c-0.201,0.534-0.051,1.201,0.453,1.999c6.71,10.642,13.356,21.325,19.95,32.04c0.58,0.942,1.224,1.548,1.934,1.816
				c0.71,0.269,1.471,0.252,2.28-0.048c1.219-0.454,1.827-0.682,3.044-1.14c0.658,1.071,0.987,1.606,1.645,2.678
				c-8.1,3.063-12.167,4.543-20.303,7.471c-0.666-1.084-1-1.624-1.667-2.706c1.235-0.442,1.853-0.666,3.087-1.11
				c0.851-0.307,1.346-0.71,1.485-1.21c0.14-0.499-0.059-1.184-0.596-2.054c-3.803-6.17-5.707-9.245-9.528-15.374
				c-6.738,2.372-10.113,3.542-16.852,5.887c3.86,6.156,5.784,9.246,9.624,15.453c0.518,0.836,1.075,1.386,1.671,1.649
				c0.597,0.263,1.202,0.286,1.815,0.069c1.413-0.501,2.12-0.753,3.533-1.256c0.669,1.084,1.004,1.629,1.673,2.715
				c-8.127,2.901-12.195,4.325-20.311,7.203c-0.676-1.091-1.015-1.636-1.69-2.726c1.304-0.462,1.958-0.693,3.263-1.154
				c0.751-0.266,1.182-0.65,1.292-1.151c0.11-0.502-0.1-1.183-0.632-2.04c-6.705-10.808-13.483-21.569-20.339-32.282
				c-0.637-0.994-1.318-1.616-2.042-1.868c-0.724-0.251-1.597-0.199-2.617,0.158c-1.032,0.36-1.547,0.54-2.578,0.902
				C214.829,234.514,214.485,233.981,213.798,232.917z"/>
			<path fill="#4D1800" stroke="#230B01" stroke-miterlimit="10" d="M266.235,214.836c12.89-4.521,25.714-9.233,38.406-14.287
				c3.907,5.561,5.85,8.336,9.727,13.887c-1.025,0.432-1.539,0.647-2.567,1.074c-2.698-3.117-4.967-5.236-6.806-6.355
				c-1.838-1.118-3.734-1.755-5.685-1.914c-1.951-0.158-4.133,0.225-6.549,1.145c-2.4,0.914-3.603,1.365-6.011,2.263
				c-0.934,0.348-1.501,0.771-1.701,1.271c-0.201,0.501-0.107,1.062,0.28,1.679c3.611,5.767,5.409,8.653,8.996,14.434
				c0.816-0.314,1.223-0.473,2.038-0.789c2.343-0.91,3.759-2.263,4.258-4.041c0.499-1.776-0.004-4.116-1.517-7.017
				c1.063-0.417,1.592-0.625,2.653-1.045c4.77,7.658,7.143,11.489,11.883,19.166c-1.048,0.441-1.57,0.661-2.621,1.098
				c-2.146-3.116-4.27-5.062-6.367-5.849c-2.102-0.787-4.458-0.663-7.072,0.358c-0.672,0.263-1.007,0.393-1.68,0.655
				c3.821,6.167,5.725,9.255,9.532,15.444c0.418,0.679,0.922,1.081,1.502,1.191c0.873,0.166,1.902,0.001,3.069-0.481
				c2.077-0.859,3.115-1.292,5.185-2.17c3.545-1.505,5.754-3.861,6.653-7.007c0.899-3.147,0.276-7.012-1.868-11.59
				c1.043-0.453,1.562-0.683,2.603-1.141c3.582,6.306,5.37,9.465,8.952,15.79c-12.906,5.81-25.906,11.238-39.08,16.411
				c-0.655-1.068-0.981-1.602-1.637-2.669c1.569-0.6,2.351-0.901,3.917-1.509c0.884-0.342,1.422-0.823,1.614-1.441
				c0.192-0.617,0.059-1.299-0.397-2.041c-6.64-10.796-13.319-21.568-20.054-32.304c-0.425-0.678-0.975-1.094-1.646-1.246
				c-0.671-0.151-1.614-0.01-2.834,0.424c-1.404,0.5-2.106,0.75-3.511,1.246C267.233,216.419,266.901,215.891,266.235,214.836z"/>
			<path fill="#4D1800" stroke="#230B01" stroke-miterlimit="10" d="M210.022,322.839c6.883-2.732,10.343-4.053,17.281-6.656
				c0.681,1.116,1.021,1.676,1.701,2.794c-0.653,0.245-0.979,0.367-1.631,0.613c-1.029,0.389-1.646,0.776-1.852,1.163
				c-0.207,0.388-0.156,0.829,0.149,1.331c0.219,0.361,0.538,0.747,0.955,1.158c8.216,7.756,16.394,15.548,24.543,23.373
				c-2.603-10.461-3.89-15.643-6.445-25.913c-1.458-1.378-2.188-2.067-3.646-3.441c-0.759-0.702-1.473-1.111-2.142-1.234
				c-0.885-0.163-1.854-0.058-2.903,0.332c-0.84,0.311-1.26,0.469-2.1,0.779c-0.68-1.118-1.02-1.677-1.699-2.793
				c8.014-2.974,12.038-4.429,20.095-7.353c0.675,1.113,1.012,1.673,1.687,2.788c-0.742,0.271-1.112,0.401-1.854,0.673
				c-1.354,0.492-2.173,0.988-2.459,1.482c-0.287,0.496-0.24,1.054,0.135,1.676c0.157,0.261,0.376,0.523,0.656,0.789
				c8.154,7.754,16.289,15.526,24.41,23.315c-2.736-10.472-4.088-15.662-6.767-25.955c-0.187-0.786-0.479-1.51-0.877-2.169
				c-0.734-1.218-1.618-2.039-2.651-2.465c-1.033-0.426-2.07-0.451-3.108-0.073c-0.494,0.181-0.74,0.271-1.233,0.449
				c-0.673-1.114-1.009-1.67-1.682-2.782c5.666-2.058,8.501-3.087,14.17-5.177c0.669,1.106,1.003,1.658,1.673,2.767
				c-1.544,0.621-2.569,1.453-3.072,2.502c-0.504,1.051-0.55,2.352-0.139,3.907c3.674,14.362,7.357,28.724,11.061,43.078
				c-1.43,0.549-2.143,0.821-3.572,1.367c-9.676-9.328-19.36-18.649-29.094-27.918c2.945,11.873,5.889,23.745,8.844,35.615
				c-1.412,0.538-2.116,0.81-3.525,1.349c-12.473-12.079-25.011-24.081-37.672-35.963c-0.785-0.737-1.502-1.184-2.148-1.339
				c-0.647-0.156-1.317-0.097-2.013,0.177c-0.545,0.216-0.818,0.321-1.362,0.538C211.05,324.509,210.707,323.952,210.022,322.839z"
				/>
			<path fill="#4D1800" stroke="#230B01" stroke-miterlimit="10" d="M272.99,299.458c12.663-4.657,25.268-9.479,37.734-14.643
				c3.98,5.851,5.974,8.781,9.971,14.65c-1.02,0.442-1.528,0.662-2.549,1.099c-2.763-3.302-5.064-5.542-6.916-6.732
				c-1.853-1.189-3.748-1.874-5.688-2.057s-4.1,0.2-6.477,1.141c-2.363,0.936-3.546,1.399-5.913,2.318
				c-0.918,0.356-1.475,0.793-1.664,1.315c-0.19,0.523-0.089,1.108,0.305,1.759c3.664,6.062,5.498,9.104,9.178,15.208
				c0.805-0.32,1.208-0.482,2.013-0.807c2.312-0.931,3.697-2.337,4.16-4.195c0.461-1.856-0.09-4.316-1.648-7.373
				c1.05-0.426,1.572-0.64,2.622-1.069c4.894,8.076,7.343,12.128,12.282,20.26c-1.043,0.45-1.562,0.677-2.605,1.122
				c-2.223-3.302-4.386-5.37-6.5-6.222c-2.113-0.852-4.463-0.75-7.046,0.293c-0.665,0.269-0.997,0.401-1.662,0.669
				c3.929,6.517,5.896,9.784,9.856,16.344c0.435,0.719,0.951,1.148,1.535,1.271c0.877,0.186,1.906,0.024,3.067-0.469
				c2.065-0.878,3.099-1.318,5.16-2.216c3.531-1.535,5.7-3.983,6.526-7.281c0.828-3.299,0.104-7.375-2.164-12.214
				c1.039-0.463,1.559-0.694,2.596-1.163c3.757,6.676,5.645,10.025,9.453,16.734c-12.85,5.899-25.796,11.445-38.896,16.766
				c-0.678-1.132-1.016-1.7-1.693-2.831c1.55-0.614,2.323-0.924,3.872-1.546c0.874-0.352,1.401-0.852,1.579-1.499
				c0.178-0.646,0.029-1.362-0.442-2.148c-6.831-11.37-13.655-22.745-20.51-34.103c-0.431-0.714-0.977-1.149-1.64-1.313
				c-0.664-0.165-1.59-0.023-2.785,0.422c-1.375,0.513-2.063,0.768-3.438,1.277C273.994,301.117,273.659,300.564,272.99,299.458z"/>
			<path fill="#4D1800" stroke="#230B01" stroke-miterlimit="10" d="M318.882,281.363c8.673-3.737,17.251-7.694,25.704-11.904
				c3.941-1.968,7.586-2.659,10.951-2.041c3.367,0.619,5.88,2.24,7.566,4.924c1.482,2.359,1.86,4.86,1.131,7.497
				c-0.73,2.638-5.555,8.268-5.555,8.268c0.066,0.11,9.32-2.425,12.396-1.814c3.076,0.611,5.449,2.21,7.148,4.849
				c1.5,2.33,2.106,4.766,1.812,7.313c-0.21,1.81-1.242,3.945-3.108,6.377c-1.865,2.432-4.488,4.649-7.89,6.594
				c-9.454,5.407-14.263,7.915-23.952,12.663c-0.669-1.079-1.002-1.617-1.669-2.696c1.556-0.756,2.332-1.14,3.882-1.91
				c0.664-0.33,1.047-0.788,1.133-1.357c0.115-0.774-0.076-1.559-0.553-2.325c-6.777-10.915-13.5-21.864-20.208-32.822
				c-0.303-0.495-0.761-0.798-1.379-0.91c-0.617-0.11-1.438,0.061-2.46,0.512c-1.327,0.587-1.991,0.878-3.321,1.457
				C319.859,282.965,319.534,282.432,318.882,281.363z M345.799,293.416c1.896-0.945,2.84-1.424,4.725-2.393
				c3.238-1.665,5.119-3.565,5.67-5.635c0.554-2.069-0.129-4.633-2.034-7.69c-1.653-2.653-3.493-4.192-5.525-4.636
				s-4.922,0.278-8.696,2.107c-1.801,0.873-2.854,1.576-3.144,2.125c-0.288,0.55-0.172,1.247,0.349,2.092
				C340.591,284.991,342.32,287.798,345.799,293.416z M347.428,296.049c3.778,6.094,5.68,9.141,9.508,15.242
				c0.498,0.794,1.047,1.312,1.646,1.546c0.6,0.234,1.191,0.196,1.773-0.119c2.16-1.167,3.235-1.759,5.383-2.961
				c2.629-1.472,4.221-3.376,4.802-5.661c0.58-2.287-0.002-4.802-1.744-7.542c-1.823-2.868-4.004-4.604-6.562-5.243
				c-2.56-0.639-5.371-0.139-8.448,1.474C351.251,294.111,349.979,294.765,347.428,296.049z"/>
		</g>
	</g>
	<polyline fill="#262626" points="580.432,338.56 558.5,350.5 578,345.5 	"/>
	<path fill="#262626" d="M576.047,375.246C575.462,375.392,564.5,383,564.5,383l13.25-0.5"/>
	<path fill="#262626" d="M576,357c-0.585,0.146-24.5,15.5-24.5,15.5l24.25-7.75"/>
</g>
<path fill="#262626" d="M213.5,497c0,0,21.25-5.25,19.25-4.75s-19.794,8.397-19.794,8.397L212,505l15.5-3l-14.544,8.399l1.044,2.352
	l0,0l44.75-11.251l-39.987,18.429L222,523l21-6l-16.197,11.341l3.441,2.159l2.439,1.19l-5.435-2.383c0,0-9.249,2.191-16.249-16.809
	c-0.5-19,6.5-29,6.5-29L213.5,497z"/>
<path fill="none" stroke="#262626" stroke-width="3" stroke-miterlimit="10" d="M283.763,530.855C277.899,536.256,270,539,245.5,541
	c-27.947,2.281-39-20-39-20S99.052,334.754,92,323.5c-7.014-11.192-59.159-91.068-79.25-132.417C-3.75,130.083,30,120.5,37,118
	c32,0.5,144.5-34.5,163-40c44.5-17,123.5-40,147.5-46c21,11,74,101,79.5,110.5s29.5,41,55,70.5c28.5,33,117.31,107.12,117.31,107.12
	"/>
<path fill="#262626" d="M291.714,475.812c-1.425,0.123,5.878-3.163,13.112-7.232c7.236-4.069,75.508-29.842,75.508-29.842l0,0
	C380.334,438.738,307.538,474.458,291.714,475.812z"/>
<path fill="#262626" d="M600.143,319.041l-2.994,6.689c0,0-2.195-0.936-1.857-1.048
	C595.629,324.571,600.143,319.041,600.143,319.041z"/>
<path fill="#FF3600" d="M303.296,472.071l51.668-21c0,0,42.332,11.334,19,66.667c-16.438,38.979,3.597,51.324,4.332,52l-27.666-7
	l-15.666,22.667c0,0-25.336-38.872-4-68.334C344.964,497.738,324.296,462.737,303.296,472.071z"/>
<path fill="#592513" d="M15.221,146.292c-0.598,1.042,3.495-19.972,22.871-25.149c3.629,4.696,3.306,3.36,3.306,3.36l0.69-2.995
	c0,0,76.753-10.38,160.652-38.703c83.898-28.323,64.542-25.479,145.039-45.496c4.994,0.708,7.939,7.397,7.939,7.397
	s-4.621-5.704-12.637-3.769c-8.018,1.935-61.759,11.168-139.364,44.542C189.004,91.36,91.135,115.903,47.389,125.55
	c-2.032,3.983-2.72,6.645-2.72,6.645l-8.959-5.072C35.71,127.125,24.35,130.365,15.221,146.292z"/>
<linearGradient id="SVGID_2_" gradientUnits="userSpaceOnUse" x1="336.083" y1="148.1948" x2="364.5149" y2="25.0426" gradientTransform="matrix(1 0 0 -1 0 602)">
	<stop  offset="0" style="stop-color:#FF1717"/>
	<stop  offset="0.1333" style="stop-color:#FB1717;stop-opacity:0.964"/>
	<stop  offset="0.2598" style="stop-color:#F01616;stop-opacity:0.9299"/>
	<stop  offset="0.3837" style="stop-color:#DD1414;stop-opacity:0.8964"/>
	<stop  offset="0.506" style="stop-color:#C21111;stop-opacity:0.8634"/>
	<stop  offset="0.6272" style="stop-color:#9F0E0E;stop-opacity:0.8306"/>
	<stop  offset="0.7476" style="stop-color:#740A0A;stop-opacity:0.7981"/>
	<stop  offset="0.8673" style="stop-color:#420606;stop-opacity:0.7658"/>
	<stop  offset="0.9836" style="stop-color:#090101;stop-opacity:0.7344"/>
	<stop  offset="1" style="stop-color:#000000;stop-opacity:0.73"/>
</linearGradient>
<path fill="url(#SVGID_2_)" d="M302.332,470.668l51.668-21c0,0,42.332,11.334,19,66.667c-16.438,38.979,3.596,51.324,4.332,52
	l-27.666-7L334,584.002c0,0-25.336-38.872-4-68.334C344,496.335,323.332,461.334,302.332,470.668z"/>
<path fill="none" stroke="#262626" stroke-width="3" stroke-miterlimit="10" d="M303,471.333l51.667-21c0,0,42.333,11.334,19,66.667
	c-16.437,38.979,3.597,51.324,4.333,52l-27.666-7l-15.667,22.667c0,0-25.335-38.872-4-68.334C344.667,497,324,461.999,303,471.333z"
	/>
<path fill="#592513" d="M48,134.5l192,308C240,442.5,122.5,238.5,48,134.5z"/>
</svg>
