<?xml version="1.0" encoding="utf-8"?>
<!-- Generator: Adobe Illustrator 15.0.2, SVG Export Plug-In . SVG Version: 6.00 Build 0)  -->
<!DOCTYPE svg PUBLIC "-//W3C//DTD SVG 1.1//EN" "http://www.w3.org/Graphics/SVG/1.1/DTD/svg11.dtd">
<svg version="1.1" id="Layer_1" xmlns="http://www.w3.org/2000/svg" xmlns:xlink="http://www.w3.org/1999/xlink" x="0px" y="0px"
	 width="603px" height="601px" viewBox="0 0 603 601" enable-background="new 0 0 603 601" xml:space="preserve">
<circle fill="#8FEAFF" stroke="#00ADDC" stroke-width="12" stroke-miterlimit="10" cx="108" cy="87" r="68"/>
<circle fill="#8FEAFF" stroke="#00ADDC" stroke-width="12" stroke-miterlimit="10" cx="105" cy="516" r="71"/>
<circle fill="#8FEAFF" stroke="#00ADDC" stroke-width="12" stroke-miterlimit="10" cx="494" cy="109" r="92"/>
<g>
	<g>
		<line fill="none" stroke="#00ADDC" stroke-width="12" stroke-miterlimit="10" x1="529" y1="196" x2="528.943" y2="202"/>
		
			<line fill="none" stroke="#00ADDC" stroke-width="12" stroke-miterlimit="10" stroke-dasharray="11.7653,11.7653" x1="528.832" y1="213.765" x2="527.112" y2="396.118"/>
		<line fill="none" stroke="#00ADDC" stroke-width="12" stroke-miterlimit="10" x1="527.057" y1="402" x2="527" y2="408"/>
	</g>
</g>
<circle fill="#8FEAFF" stroke="#00ADDC" stroke-width="12" stroke-miterlimit="10" cx="461" cy="431" r="73"/>
<line fill="none" stroke="#00ADDC" stroke-width="12" stroke-miterlimit="10" x1="362" y1="329" x2="412" y2="381"/>
<line fill="none" stroke="#00ADDC" stroke-width="12" stroke-miterlimit="10" x1="362" y1="204" x2="417" y2="161"/>
<line fill="none" stroke="#00ADDC" stroke-width="12" stroke-miterlimit="10" x1="228" y1="204" x2="158" y2="131"/>
<line fill="none" stroke="#00ADDC" stroke-width="12" stroke-miterlimit="10" x1="228" y1="329" x2="145" y2="452"/>
<g>
	<g>
		<line fill="none" stroke="#00ADDC" stroke-width="12" stroke-miterlimit="10" x1="171" y1="515" x2="176.841" y2="513.63"/>
		
			<line fill="none" stroke="#00ADDC" stroke-width="12" stroke-miterlimit="10" stroke-dasharray="11.5859,11.5859" x1="188.122" y1="510.984" x2="385.52" y2="464.692"/>
		<line fill="none" stroke="#00ADDC" stroke-width="12" stroke-miterlimit="10" x1="391.158" y1="463.37" x2="397" y2="462"/>
	</g>
</g>
<line fill="none" stroke="#00ADDC" stroke-width="12" stroke-miterlimit="10" stroke-dasharray="12" x1="173" y1="78" x2="399" y2="97"/>
<line fill="none" stroke="#00ADDC" stroke-width="12" stroke-miterlimit="10" stroke-dasharray="12" x1="92" y1="155" x2="83" y2="447"/>
<g>
	<g>
		<defs>
			<circle id="SVGID_1_" cx="108" cy="87" r="62"/>
		</defs>
		<clipPath id="SVGID_2_">
			<use xlink:href="#SVGID_1_"  overflow="visible"/>
		</clipPath>
		<g clip-path="url(#SVGID_2_)">
			<circle fill="#FFFFFF" cx="108.375" cy="56.782" r="24.5"/>
			<path fill="#FFFFFF" d="M108.507,88.515c0,0,12.097,0.807,20.778-7.689c13.356,3.339,28.382,13.356,28.382,54.259
				s0,51.755,0,51.755h-48.891H60c0,0,0-10.852,0-51.755s15.026-50.92,28.382-54.259C98.562,89.143,108.507,88.515,108.507,88.515z"
				/>
		</g>
	</g>
</g>
<g>
	<g>
		<defs>
			<circle id="SVGID_3_" cx="493.667" cy="108.333" r="86.333"/>
		</defs>
		<clipPath id="SVGID_4_">
			<use xlink:href="#SVGID_3_"  overflow="visible"/>
		</clipPath>
		<g clip-path="url(#SVGID_4_)">
			<circle fill="#FFFFFF" cx="494.19" cy="66.256" r="34.116"/>
			<path fill="#FFFFFF" d="M494.373,110.443c0,0,16.844,1.123,28.934-10.708c18.597,4.65,39.521,18.598,39.521,75.554
				c0,56.957,0,72.068,0,72.068h-68.078h-67.92c0,0,0-15.111,0-72.068s20.923-70.904,39.521-75.554
				C480.524,111.317,494.373,110.443,494.373,110.443z"/>
		</g>
	</g>
</g>
<g>
	<g>
		<defs>
			<circle id="SVGID_5_" cx="461.5" cy="431.167" r="66.834"/>
		</defs>
		<clipPath id="SVGID_6_">
			<use xlink:href="#SVGID_5_"  overflow="visible"/>
		</clipPath>
		<g clip-path="url(#SVGID_6_)">
			<circle fill="#FFFFFF" cx="461.905" cy="398.594" r="26.411"/>
			<path fill="#FFFFFF" d="M462.047,432.801c0,0,13.04,0.87,22.397-8.29c14.396,3.6,30.595,14.398,30.595,58.489
				c0,44.094,0,55.793,0,55.793h-52.702h-52.58c0,0,0-11.699,0-55.793c0-44.091,16.197-54.891,30.597-58.489
				C451.326,433.477,462.047,432.801,462.047,432.801z"/>
		</g>
	</g>
</g>
<g>
	<g>
		<defs>
			<circle id="SVGID_7_" cx="105.166" cy="515.5" r="65.167"/>
		</defs>
		<clipPath id="SVGID_8_">
			<use xlink:href="#SVGID_7_"  overflow="visible"/>
		</clipPath>
		<g clip-path="url(#SVGID_8_)">
			<circle fill="#FFFFFF" cx="105.561" cy="483.74" r="25.752"/>
			<path fill="#FFFFFF" d="M105.699,517.094c0,0,12.715,0.85,21.839-8.083c14.037,3.508,29.832,14.039,29.832,57.03
				c0,42.993,0,54.401,0,54.401h-51.388H54.713c0,0,0-11.408,0-54.401c0-42.991,15.793-53.521,29.833-57.03
				C95.246,517.753,105.699,517.094,105.699,517.094z"/>
		</g>
	</g>
</g>
<circle fill="#00ADDC" stroke="#8FEAFF" stroke-width="12" stroke-miterlimit="10" cx="291" cy="266" r="89"/>
<g>
	<path fill="#FFFFFF" d="M256.14,256.071c-0.704-3.036-2.424-5.159-5.159-6.365c-1.529-0.664-3.228-0.996-5.098-0.996
		c-3.581,0-6.522,1.35-8.825,4.051c-2.303,2.699-3.454,6.759-3.454,12.179c0,5.46,1.247,9.325,3.741,11.593
		c2.493,2.268,5.329,3.402,8.507,3.402c3.117,0,5.672-0.894,7.662-2.683c1.991-1.789,3.218-4.132,3.681-7.031h-10.288v-7.421h18.524
		v23.863h-6.154l-0.935-5.551c-1.79,2.103-3.399,3.584-4.828,4.446c-2.454,1.501-5.472,2.252-9.05,2.252
		c-5.894,0-10.721-2.041-14.482-6.121c-3.922-4.1-5.883-9.708-5.883-16.823c0-7.195,1.98-12.964,5.943-17.305
		c3.962-4.341,9.202-6.513,15.718-6.513c5.652,0,10.192,1.434,13.622,4.299c3.429,2.866,5.395,6.441,5.898,10.725L256.14,256.071
		L256.14,256.071z"/>
	<path fill="#FFFFFF" d="M302.799,243.34c1.639,0.704,3.025,1.74,4.164,3.108c0.941,1.126,1.687,2.374,2.235,3.74
		c0.549,1.368,0.824,2.926,0.824,4.676c0,2.112-0.533,4.189-1.599,6.23c-1.067,2.042-2.827,3.483-5.28,4.329
		c2.052,0.825,3.505,1.996,4.36,3.515c0.854,1.518,1.281,3.835,1.281,6.954v2.986c0,2.033,0.082,3.41,0.244,4.134
		c0.246,1.146,0.817,1.991,1.717,2.534v1.116h-10.258c-0.282-0.985-0.482-1.78-0.603-2.383c-0.241-1.247-0.372-2.524-0.392-3.831
		l-0.061-4.133c-0.039-2.836-0.528-4.727-1.47-5.672s-2.707-1.418-5.293-1.418h-9.075v17.438h-9.081v-44.469h21.271
		C298.822,242.255,301.161,242.637,302.799,243.34z M283.594,249.918v11.947h10c1.987,0,3.476-0.241,4.47-0.724
		c1.758-0.845,2.636-2.514,2.636-5.008c0-2.695-0.85-4.505-2.55-5.431c-0.955-0.523-2.388-0.785-4.297-0.785L283.594,249.918
		L283.594,249.918z"/>
	<path fill="#FFFFFF" d="M323.17,246.84c3.58-3.661,8.137-5.491,13.668-5.491c7.402,0,12.814,2.455,16.238,7.361
		c1.89,2.755,2.904,5.521,3.044,8.297h-9.292c-0.592-2.132-1.351-3.741-2.276-4.827c-1.655-1.931-4.108-2.897-7.358-2.897
		c-3.311,0-5.922,1.364-7.832,4.088c-1.912,2.726-2.866,6.582-2.866,11.569c0,4.988,1.007,8.724,3.024,11.208
		c2.018,2.484,4.578,3.726,7.688,3.726c3.188,0,5.617-1.065,7.289-3.198c0.926-1.146,1.691-2.866,2.302-5.159h9.231
		c-0.795,4.848-2.83,8.79-6.104,11.826c-3.273,3.038-7.467,4.556-12.58,4.556c-6.328,0-11.303-2.052-14.923-6.155
		c-3.622-4.122-5.431-9.775-5.431-16.955C316.992,257.028,319.05,251.043,323.17,246.84z"/>
</g>
</svg>
