<?xml version="1.0" encoding="utf-8"?>
<!-- Generator: Adobe Illustrator 15.0.2, SVG Export Plug-In . SVG Version: 6.00 Build 0)  -->
<!DOCTYPE svg PUBLIC "-//W3C//DTD SVG 1.1//EN" "http://www.w3.org/Graphics/SVG/1.1/DTD/svg11.dtd">
<svg version="1.1" xmlns="http://www.w3.org/2000/svg" xmlns:xlink="http://www.w3.org/1999/xlink" x="0px" y="0px" width="603px"
	 height="601px" viewBox="0 0 603 601" enable-background="new 0 0 603 601" xml:space="preserve">
<g id="Layer_1">
</g>
<g id="Layer_2_1_">
	<g>
		<g>
			
				<rect x="399.967" y="203.265" transform="matrix(0.7498 0.6617 -0.6617 0.7498 247.2182 -218.6335)" fill="#FFFFFF" stroke="#232323" stroke-width="3" stroke-miterlimit="10" width="25.416" height="28.553"/>
			
				<rect x="407.483" y="171.13" transform="matrix(0.7497 0.6618 -0.6618 0.7497 235.4382 -221.8176)" fill="#FFFFFF" stroke="#232323" stroke-width="3" stroke-miterlimit="10" width="6.903" height="58.362"/>
			
				<rect x="425.832" y="187.325" transform="matrix(0.7497 0.6617 -0.6617 0.7497 250.7082 -229.8911)" fill="#FFFFFF" stroke="#232323" stroke-width="3" stroke-miterlimit="10" width="6.904" height="58.362"/>
			<path fill="#FFFFFF" stroke="#232323" stroke-width="3" stroke-miterlimit="10" d="M162.606,517.245l216.348-245.136
				l-17.408-15.364L145.197,501.88l0,0c0,0-19.324,20.475-11.087,43.213c5.23,12.583-7.404,25.954-21.121,10.654
				c-22.7-25.321-57.165-41.338-57.165-41.338l1.103,3.87l-4.884,1.235c0,0,34.278,20.939,53.693,48.245
				c4.668,5.918,25.009,27.946,45.33-2.665C160.697,547.228,145.751,535.711,162.606,517.245L162.606,517.245z"/>
			<path fill="#FFFFFF" stroke="#232323" stroke-width="3" stroke-miterlimit="10" d="M416.215,242.219
				c-1.146,1.299-3.128,1.423-4.428,0.276l-24.937-22.008c-1.299-1.146-1.423-3.129-0.276-4.429l0,0
				c1.146-1.299,3.13-1.423,4.429-0.275l24.937,22.008C417.24,238.937,417.362,240.919,416.215,242.219L416.215,242.219z"/>
			<path fill="#FFFFFF" stroke="#232323" stroke-width="3" stroke-miterlimit="10" d="M385.488,277.037
				c-1.147,1.3-3.131,1.424-4.431,0.276l-24.937-22.008c-1.299-1.147-1.423-3.13-0.275-4.429l0,0
				c1.146-1.299,3.128-1.422,4.428-0.276l24.937,22.009C386.51,273.755,386.634,275.737,385.488,277.037L385.488,277.037z"/>
			<path fill="#FFFFFF" stroke="#232323" stroke-width="3" stroke-miterlimit="10" d="M400.645,259.863
				c-7.384,8.365-14.42,14.215-15.718,13.069l-24.938-22.009c-1.3-1.147,3.631-8.856,11.014-17.221l0,0
				c7.383-8.365,14.42-14.215,15.718-13.068l24.938,22.008C412.958,243.79,408.026,251.499,400.645,259.863L400.645,259.863z"/>
		</g>
		<path fill="#494949" stroke="#232323" stroke-width="6" stroke-miterlimit="10" d="M534.541,202.353l-27.156,30.77
			c0,0-0.165-10.836-9.971-13.031c-9.809-2.195-17.311,8.224-21.909,15.508c-4.92,7.794,0.082,19.648,6.633,24.646l-11.766,13.867
			L349.451,167.391L453.265,49.764c26.604-30.143,72.606-33.012,102.75-6.409l12.233,10.796
			c30.144,26.603,33.012,72.605,6.408,102.749l-1.384,1.657l0,0l-4.154-0.083l-3.761-0.066l0.533,3.723l0.531,3.722l0,0
			l-3.684-0.149l-3.761-0.067l0.533,3.723l0.533,3.723l0,0l-3.803-0.019l-3.76-0.066l0.535,3.723l0.547,3.704l0,0l-3.758-0.066
			l-3.761-0.066l0.534,3.723l0.548,3.703l0,0l-3.759-0.065l-3.761-0.067l0.534,3.723l0.549,3.703l0,0l-3.76-0.065l-3.761-0.067
			L534.541,202.353z"/>
		<path fill="#494949" stroke="#B5B5B5" stroke-width="3" stroke-miterlimit="10" d="M534.541,202.353l-27.156,30.77
			c0,0-0.165-10.836-9.971-13.031c-9.809-2.195-17.311,8.224-21.909,15.508c-4.92,7.794,0.082,19.648,6.633,24.646l-11.766,13.867
			L349.451,167.391L453.265,49.764c26.604-30.143,72.606-33.012,102.75-6.409l12.233,10.796
			c30.144,26.603,33.012,72.605,6.408,102.749l-1.384,1.657l0,0l-4.154-0.083l-3.761-0.066l0.533,3.723l0.531,3.722l0,0
			l-3.684-0.149l-3.761-0.067l0.533,3.723l0.533,3.723l0,0l-3.803-0.019l-3.76-0.066l0.535,3.723l0.547,3.704l0,0l-3.758-0.066
			l-3.761-0.066l0.534,3.723l0.548,3.703l0,0l-3.759-0.065l-3.761-0.067l0.534,3.723l0.549,3.703l0,0l-3.76-0.065l-3.761-0.067
			L534.541,202.353z"/>
		<g>
			
				<rect x="399.967" y="203.265" transform="matrix(0.7498 0.6617 -0.6617 0.7498 247.2182 -218.6335)" fill="#494949" stroke="#828282" stroke-miterlimit="10" width="25.416" height="28.553"/>
			
				<rect x="403.187" y="186.004" transform="matrix(0.7497 0.6617 -0.6617 0.7497 237.3885 -217.8306)" fill="#B5B5B5" width="6.982" height="37.841"/>
			
				<rect x="421.745" y="202.383" transform="matrix(0.7498 0.6617 -0.6617 0.7498 252.8483 -226.0031)" fill="#B5B5B5" width="6.981" height="37.841"/>
			<path fill="#494949" stroke="#B5B5B5" stroke-miterlimit="10" d="M162.606,517.245l216.348-245.136l-17.408-15.364
				L145.197,501.88l0,0c0,0-19.324,20.475-11.087,43.213c5.23,12.583-7.404,25.954-21.121,10.654
				c-22.7-25.321-57.165-41.338-57.165-41.338l1.103,3.87l-4.884,1.235c0,0,34.278,20.939,53.693,48.245
				c4.668,5.918,25.009,27.946,45.33-2.665C160.697,547.228,145.751,535.711,162.606,517.245L162.606,517.245z"/>
			<path fill="#494949" d="M416.215,242.219c-1.146,1.299-3.128,1.423-4.428,0.276l-24.937-22.008
				c-1.299-1.146-1.423-3.129-0.276-4.429l0,0c1.146-1.299,3.13-1.423,4.429-0.275l24.937,22.008
				C417.24,238.937,417.362,240.919,416.215,242.219L416.215,242.219z"/>
			<path fill="#494949" d="M385.488,277.037c-1.147,1.3-3.131,1.424-4.431,0.276l-24.937-22.008
				c-1.299-1.147-1.423-3.13-0.275-4.429l0,0c1.146-1.299,3.128-1.422,4.428-0.276l24.937,22.009
				C386.51,273.755,386.634,275.737,385.488,277.037L385.488,277.037z"/>
			<path fill="#494949" stroke="#828282" stroke-miterlimit="10" d="M400.645,259.863c-7.384,8.365-14.42,14.215-15.718,13.069
				l-24.938-22.009c-1.3-1.147,3.631-8.856,11.014-17.221l0,0c7.383-8.365,14.42-14.215,15.718-13.068l24.938,22.008
				C412.958,243.79,408.026,251.499,400.645,259.863L400.645,259.863z"/>
		</g>
		<circle fill="#B5B5B5" cx="412.676" cy="217.542" r="4.863"/>
		<path fill="#848484" stroke="#000000" stroke-miterlimit="10" d="M366.487,297.933c-1.377,1.559-3.756,1.707-5.314,0.332
			l-22.585-19.933c-1.561-1.376-1.708-3.756-0.332-5.315l0,0c1.377-1.559,3.754-1.708,5.314-0.331l22.584,19.933
			C367.715,293.995,367.862,296.374,366.487,297.933L366.487,297.933z"/>
		<path fill="#848484" stroke="#000000" stroke-miterlimit="10" d="M360.673,304.52c-1.376,1.559-3.756,1.708-5.314,0.332
			l-22.585-19.933c-1.56-1.376-1.707-3.755-0.331-5.315l0,0c1.374-1.559,3.755-1.708,5.314-0.331l22.584,19.932
			C361.9,300.582,362.049,302.961,360.673,304.52L360.673,304.52z"/>
		<path fill="#848484" stroke="#000000" stroke-miterlimit="10" d="M355.274,310.637c-1.376,1.559-3.756,1.707-5.314,0.331
			l-22.584-19.932c-1.56-1.376-1.708-3.756-0.332-5.314l0,0c1.376-1.559,3.755-1.708,5.315-0.333l22.584,19.934
			C356.503,306.698,356.649,309.077,355.274,310.637L355.274,310.637z"/>
		<path fill="#848484" stroke="#000000" stroke-miterlimit="10" d="M349.461,317.224c-1.376,1.56-3.756,1.707-5.314,0.331
			l-22.586-19.932c-1.559-1.376-1.706-3.756-0.331-5.315l0,0c1.377-1.559,3.756-1.708,5.314-0.332l22.586,19.933
			C350.688,313.285,350.837,315.665,349.461,317.224L349.461,317.224z"/>
		<path fill="#848484" stroke="#000000" stroke-miterlimit="10" d="M344.062,323.34c-1.374,1.56-3.754,1.708-5.314,0.332
			l-22.584-19.933c-1.56-1.376-1.706-3.755-0.331-5.314l0,0c1.375-1.559,3.755-1.708,5.314-0.332l22.585,19.933
			C345.29,319.402,345.438,321.781,344.062,323.34L344.062,323.34z"/>
		<path fill="#848484" stroke="#000000" stroke-miterlimit="10" d="M338.25,329.927c-1.377,1.559-3.756,1.708-5.314,0.332
			l-22.586-19.933c-1.559-1.376-1.707-3.756-0.33-5.314l0,0c1.375-1.559,3.753-1.708,5.312-0.332l22.586,19.933
			C339.477,325.988,339.625,328.369,338.25,329.927L338.25,329.927z"/>
		<path fill="#848484" stroke="#000000" stroke-miterlimit="10" d="M332.85,336.044c-1.375,1.558-3.755,1.707-5.314,0.331
			l-22.584-19.932c-1.561-1.377-1.707-3.757-0.332-5.315l0,0c1.375-1.558,3.756-1.708,5.315-0.331l22.584,19.933
			C334.078,332.106,334.227,334.485,332.85,336.044L332.85,336.044z"/>
		<path fill="#848484" stroke="#000000" stroke-miterlimit="10" d="M327.037,342.631c-1.375,1.56-3.756,1.707-5.314,0.332
			l-22.584-19.934c-1.559-1.376-1.708-3.755-0.332-5.314l0,0c1.376-1.558,3.756-1.707,5.315-0.331l22.585,19.933
			C328.266,338.693,328.412,341.073,327.037,342.631L327.037,342.631z"/>
		<path fill="#848484" stroke="#000000" stroke-miterlimit="10" d="M321.64,348.748c-1.377,1.559-3.755,1.707-5.314,0.331
			l-22.585-19.932c-1.56-1.377-1.708-3.757-0.332-5.314l0,0c1.375-1.56,3.754-1.709,5.314-0.333l22.584,19.933
			C322.867,344.809,323.015,347.188,321.64,348.748L321.64,348.748z"/>
		<path fill="#848484" stroke="#000000" stroke-miterlimit="10" d="M315.825,355.335c-1.376,1.558-3.756,1.707-5.314,0.331
			l-22.585-19.932c-1.559-1.377-1.706-3.756-0.331-5.315l0,0c1.375-1.559,3.756-1.707,5.314-0.331l22.585,19.933
			C317.053,351.396,317.199,353.776,315.825,355.335L315.825,355.335z"/>
		<path fill="#848484" stroke="#000000" stroke-miterlimit="10" d="M310.427,361.451c-1.376,1.56-3.755,1.709-5.314,0.332
			l-22.584-19.933c-1.559-1.376-1.708-3.756-0.332-5.315l0,0c1.376-1.558,3.755-1.707,5.315-0.331l22.584,19.933
			C311.654,357.513,311.802,359.894,310.427,361.451L310.427,361.451z"/>
		<path fill="#848484" stroke="#000000" stroke-miterlimit="10" d="M304.613,368.038c-1.377,1.56-3.755,1.708-5.314,0.332
			l-22.585-19.932c-1.559-1.377-1.706-3.757-0.332-5.314l0,0c1.376-1.56,3.756-1.709,5.314-0.333l22.585,19.933
			C305.84,364.1,305.988,366.479,304.613,368.038L304.613,368.038z"/>
		<path fill="#848484" stroke="#000000" stroke-miterlimit="10" d="M299.214,374.155c-1.375,1.558-3.754,1.708-5.315,0.331
			l-22.583-19.932c-1.56-1.377-1.708-3.756-0.332-5.314l0,0c1.375-1.56,3.755-1.708,5.314-0.331l22.585,19.932
			C300.443,370.217,300.589,372.596,299.214,374.155L299.214,374.155z"/>
		<path fill="#848484" stroke="#000000" stroke-miterlimit="10" d="M293.402,380.742c-1.376,1.56-3.755,1.707-5.314,0.332
			l-22.585-19.933c-1.559-1.377-1.707-3.756-0.331-5.315l0,0c1.375-1.558,3.755-1.707,5.314-0.331l22.585,19.933
			C294.629,376.804,294.777,379.185,293.402,380.742L293.402,380.742z"/>
		<path fill="#848484" stroke="#000000" stroke-miterlimit="10" d="M288.002,386.858c-1.376,1.559-3.755,1.709-5.314,0.331
			l-22.584-19.932c-1.56-1.376-1.707-3.756-0.332-5.313l0,0c1.375-1.56,3.755-1.709,5.315-0.333l22.584,19.933
			C289.231,382.921,289.378,385.301,288.002,386.858L288.002,386.858z"/>
		<path fill="#848484" stroke="#000000" stroke-miterlimit="10" d="M282.189,393.447c-1.375,1.558-3.755,1.706-5.314,0.33
			l-22.584-19.932c-1.559-1.377-1.707-3.756-0.332-5.314l0,0c1.376-1.56,3.756-1.708,5.315-0.331l22.586,19.932
			C283.417,389.508,283.565,391.888,282.189,393.447L282.189,393.447z"/>
		<path fill="#848484" stroke="#000000" stroke-miterlimit="10" d="M277.206,399.092c-1.376,1.56-3.755,1.709-5.314,0.332
			l-22.585-19.932c-1.559-1.377-1.707-3.757-0.332-5.316l0,0c1.376-1.558,3.756-1.707,5.315-0.33l22.584,19.932
			C278.434,395.153,278.581,397.534,277.206,399.092L277.206,399.092z"/>
		<path fill="#848484" stroke="#000000" stroke-miterlimit="10" d="M271.392,405.68c-1.375,1.559-3.754,1.707-5.314,0.331
			l-22.584-19.932c-1.56-1.377-1.707-3.757-0.332-5.314l0,0c1.376-1.56,3.755-1.709,5.315-0.333l22.584,19.935
			C272.62,401.74,272.769,404.12,271.392,405.68L271.392,405.68z"/>
		<path fill="#848484" stroke="#000000" stroke-miterlimit="10" d="M265.995,411.796c-1.376,1.56-3.755,1.708-5.315,0.331
			l-22.584-19.932c-1.559-1.376-1.707-3.756-0.331-5.315l0,0c1.376-1.558,3.755-1.707,5.314-0.33l22.585,19.932
			C267.222,407.857,267.37,410.237,265.995,411.796L265.995,411.796z"/>
		<path fill="#848484" stroke="#000000" stroke-miterlimit="10" d="M260.181,418.382c-1.375,1.56-3.755,1.709-5.314,0.333
			l-22.585-19.933c-1.56-1.376-1.707-3.756-0.331-5.314l0,0c1.376-1.558,3.755-1.708,5.314-0.332l22.584,19.932
			C261.409,414.445,261.557,416.824,260.181,418.382L260.181,418.382z"/>
		<path fill="#848484" stroke="#000000" stroke-miterlimit="10" d="M254.782,424.5c-1.375,1.559-3.754,1.708-5.314,0.331
			l-22.584-19.932c-1.559-1.376-1.707-3.757-0.332-5.314l0,0c1.376-1.56,3.756-1.709,5.315-0.332l22.585,19.933
			C256.01,420.561,256.158,422.941,254.782,424.5L254.782,424.5z"/>
		<path fill="#848484" stroke="#000000" stroke-miterlimit="10" d="M248.968,431.087c-1.375,1.558-3.754,1.707-5.314,0.331
			l-22.584-19.933c-1.56-1.376-1.708-3.755-0.332-5.313l0,0c1.376-1.559,3.755-1.708,5.315-0.332l22.584,19.932
			C250.197,427.149,250.344,429.527,248.968,431.087L248.968,431.087z"/>
		<path fill="#848484" stroke="#000000" stroke-miterlimit="10" d="M243.571,437.203c-1.376,1.56-3.755,1.709-5.315,0.332
			l-22.585-19.933c-1.559-1.375-1.707-3.756-0.331-5.315l0,0c1.375-1.558,3.755-1.707,5.314-0.33l22.585,19.932
			C244.798,433.265,244.946,435.646,243.571,437.203L243.571,437.203z"/>
		<path fill="#848484" stroke="#000000" stroke-miterlimit="10" d="M237.757,443.791c-1.375,1.558-3.755,1.707-5.314,0.331
			l-22.585-19.933c-1.56-1.376-1.707-3.756-0.331-5.313l0,0c1.376-1.56,3.754-1.709,5.314-0.333l22.584,19.932
			C238.985,439.853,239.133,442.231,237.757,443.791L237.757,443.791z"/>
		<path fill="#848484" stroke="#000000" stroke-miterlimit="10" d="M232.358,449.907c-1.375,1.559-3.755,1.707-5.314,0.331
			l-22.584-19.932c-1.559-1.377-1.707-3.756-0.332-5.314l0,0c1.376-1.559,3.756-1.708,5.315-0.331l22.584,19.932
			C233.586,445.969,233.734,448.349,232.358,449.907L232.358,449.907z"/>
		<path fill="#848484" stroke="#000000" stroke-miterlimit="10" d="M226.544,456.494c-1.375,1.559-3.755,1.709-5.314,0.333
			l-22.584-19.935c-1.56-1.375-1.708-3.756-0.332-5.314l0,0c1.376-1.558,3.755-1.707,5.315-0.331l22.584,19.933
			C227.773,452.557,227.92,454.937,226.544,456.494L226.544,456.494z"/>
		<path fill="#848484" stroke="#000000" stroke-miterlimit="10" d="M221.147,462.612c-1.376,1.558-3.755,1.706-5.315,0.33
			l-22.585-19.932c-1.559-1.377-1.707-3.757-0.331-5.314l0,0c1.375-1.56,3.755-1.709,5.314-0.333l22.585,19.934
			C222.375,458.672,222.522,461.053,221.147,462.612L221.147,462.612z"/>
		<path fill="#848484" stroke="#000000" stroke-miterlimit="10" d="M215.333,469.198c-1.375,1.558-3.755,1.707-5.314,0.331
			l-22.585-19.933c-1.56-1.376-1.707-3.756-0.331-5.314l0,0c1.375-1.559,3.754-1.706,5.314-0.33l22.585,19.932
			C216.561,465.261,216.708,467.639,215.333,469.198L215.333,469.198z"/>
		<path fill="#848484" stroke="#000000" stroke-miterlimit="10" d="M209.934,475.314c-1.375,1.56-3.755,1.708-5.314,0.332
			l-22.584-19.933c-1.559-1.376-1.707-3.756-0.332-5.314l0,0c1.376-1.558,3.756-1.708,5.315-0.332L209.603,470
			C211.163,471.376,211.31,473.757,209.934,475.314L209.934,475.314z"/>
		<path fill="#848484" stroke="#000000" stroke-miterlimit="10" d="M204.121,481.901c-1.375,1.559-3.755,1.709-5.315,0.333
			l-22.584-19.934c-1.56-1.376-1.708-3.757-0.332-5.314l0,0c1.376-1.559,3.755-1.707,5.314-0.332l22.584,19.933
			C205.35,477.964,205.497,480.344,204.121,481.901L204.121,481.901z"/>
		<path fill="#848484" stroke="#000000" stroke-miterlimit="10" d="M198.723,488.02c-1.376,1.558-3.755,1.706-5.315,0.33
			l-22.585-19.932c-1.559-1.377-1.707-3.756-0.331-5.314l0,0c1.375-1.558,3.755-1.708,5.314-0.332l22.585,19.933
			C199.951,484.08,200.098,486.46,198.723,488.02L198.723,488.02z"/>
		<path fill="#848484" stroke="#000000" stroke-miterlimit="10" d="M192.909,494.605c-1.375,1.559-3.755,1.709-5.314,0.332
			l-22.585-19.934c-1.56-1.376-1.706-3.756-0.331-5.314l0,0c1.375-1.558,3.754-1.706,5.314-0.33l22.585,19.932
			C194.137,490.668,194.285,493.048,192.909,494.605L192.909,494.605z"/>
		<g opacity="0.06">
			<defs>
				<path id="SVGID_1_" opacity="0.06" d="M534.541,202.353l-27.156,30.77c0,0-0.165-10.836-9.971-13.031
					c-9.809-2.195-17.311,8.224-21.909,15.508c-4.92,7.794,0.082,19.648,6.633,24.646l-11.766,13.867L349.451,167.391
					L453.265,49.764c26.604-30.143,72.606-33.012,102.75-6.409l12.233,10.796c30.144,26.603,33.012,72.605,6.408,102.749
					l-1.384,1.657l0,0l-4.154-0.083l-3.761-0.066l0.533,3.723l0.531,3.722l0,0l-3.684-0.149l-3.761-0.067l0.533,3.723l0.533,3.723
					l0,0l-3.803-0.019l-3.76-0.066l0.535,3.723l0.547,3.704l0,0l-3.758-0.066l-3.761-0.066l0.534,3.723l0.548,3.703l0,0
					l-3.759-0.065l-3.761-0.067l0.534,3.723l0.549,3.703l0,0l-3.76-0.065l-3.761-0.067L534.541,202.353z"/>
			</defs>
			<clipPath id="SVGID_2_">
				<use xlink:href="#SVGID_1_"  overflow="visible"/>
			</clipPath>
			<path clip-path="url(#SVGID_2_)" fill="#939393" d="M486.031,339.826c-16.054,18.19-43.814,19.923-62.003,3.869l0,0
				c-18.191-16.055-19.923-43.814-3.869-62.004L610.763,65.727c16.055-18.189,43.813-19.921,62.004-3.867l0,0
				c18.189,16.054,19.921,43.813,3.866,62.003L486.031,339.826z"/>
			<path clip-path="url(#SVGID_2_)" fill="#D1D1D1" d="M348.918,223.001c-16.055,18.189-43.812,19.921-62.002,3.867l0,0
				c-18.191-16.054-19.922-43.813-3.868-62.003L473.649-51.1c16.054-18.189,43.814-19.921,62.003-3.868l0,0
				c18.191,16.055,19.924,43.814,3.869,62.004L348.918,223.001z"/>
		</g>
	</g>
	<g>
		<g>
			
				<rect x="189.515" y="204.157" transform="matrix(-0.7527 0.6583 -0.6583 -0.7527 498.2439 249.7344)" fill="#FFFFFF" stroke="#232323" stroke-width="3" stroke-miterlimit="10" width="25.417" height="28.553"/>
			
				<rect x="200.591" y="172.03" transform="matrix(-0.7526 0.6585 -0.6585 -0.7526 490.0981 218.2753)" fill="#FFFFFF" stroke="#232323" stroke-width="3" stroke-miterlimit="10" width="6.903" height="58.362"/>
			
				<rect x="182.167" y="188.141" transform="matrix(-0.7528 0.6582 -0.6582 -0.7528 468.402 258.7584)" fill="#FFFFFF" stroke="#232323" stroke-width="3" stroke-miterlimit="10" width="6.903" height="58.363"/>
			<path fill="#FFFFFF" stroke="#232323" stroke-width="3" stroke-miterlimit="10" d="M450.932,519.267L235.697,273.152
				l17.478-15.284L468.409,503.98l0,0c0,0,19.232,20.562,10.892,43.264c-5.288,12.559,7.286,25.986,21.072,10.751
				c22.814-25.219,57.352-41.08,57.352-41.08l-1.12,3.866l4.879,1.257c0,0-34.373,20.783-53.912,48
				c-4.692,5.897-25.135,27.834-45.317-2.869C452.704,549.257,467.702,537.809,450.932,519.267L450.932,519.267z"/>
			<path fill="#FFFFFF" stroke="#232323" stroke-width="3" stroke-miterlimit="10" d="M198.572,243.094
				c1.139,1.305,3.121,1.438,4.426,0.296l25.036-21.895c1.304-1.142,1.437-3.124,0.296-4.429l0,0
				c-1.14-1.303-3.124-1.437-4.427-0.294l-25.036,21.895C197.561,239.808,197.431,241.79,198.572,243.094L198.572,243.094z"/>
			<path fill="#FFFFFF" stroke="#232323" stroke-width="3" stroke-miterlimit="10" d="M229.139,278.051
				c1.143,1.305,3.125,1.438,4.43,0.296l25.036-21.895c1.304-1.142,1.438-3.124,0.296-4.428l0,0
				c-1.142-1.304-3.122-1.437-4.427-0.296l-25.036,21.896C228.133,274.766,228,276.747,229.139,278.051L229.139,278.051z"/>
			<path fill="#FFFFFF" stroke="#232323" stroke-width="3" stroke-miterlimit="10" d="M214.062,260.809
				c7.347,8.398,14.355,14.28,15.659,13.14l25.039-21.896c1.304-1.14-3.591-8.873-10.937-17.271l0,0
				c-7.344-8.398-14.354-14.279-15.658-13.139l-25.038,21.895C201.821,244.68,206.718,252.411,214.062,260.809L214.062,260.809z"/>
		</g>
		<path fill="#494949" stroke="#232323" stroke-width="6" stroke-miterlimit="10" d="M80.428,202.692l27.017,30.893
			c0,0,0.214-10.835,10.029-12.984c9.819-2.151,17.273,8.302,21.839,15.606c4.885,7.816-0.171,19.648-6.745,24.617l11.703,13.92
			l121.403-106.173L162.395,50.474c-26.466-30.263-72.456-33.341-102.721-6.876L47.393,54.339
			c-30.264,26.465-33.341,72.455-6.874,102.719l1.376,1.662l0,0l4.154-0.063l3.762-0.048l-0.55,3.72l-0.548,3.72l0,0l3.684-0.133
			l3.761-0.05l-0.55,3.719l-0.55,3.72l0,0l3.803-0.001l3.76-0.049l-0.552,3.719l-0.564,3.702l0,0l3.759-0.049l3.76-0.049
			l-0.551,3.72l-0.564,3.7l0,0l3.758-0.049l3.761-0.049l-0.551,3.721l-0.565,3.7l0,0l3.76-0.048l3.761-0.05L80.428,202.692z"/>
		<path fill="#474747" stroke="#B5B5B5" stroke-width="3" stroke-miterlimit="10" d="M80.428,202.692l27.017,30.893
			c0,0,0.214-10.835,10.029-12.984c9.819-2.151,17.273,8.302,21.839,15.606c4.885,7.816-0.171,19.648-6.745,24.617l11.703,13.92
			l121.403-106.173L162.395,50.474c-26.466-30.263-72.456-33.341-102.721-6.876L47.393,54.339
			c-30.264,26.465-33.341,72.455-6.874,102.719l1.376,1.662l0,0l4.154-0.063l3.762-0.048l-0.55,3.72l-0.548,3.72l0,0l3.684-0.133
			l3.761-0.05l-0.55,3.719l-0.55,3.72l0,0l3.803-0.001l3.76-0.049l-0.552,3.719l-0.564,3.702l0,0l3.759-0.049l3.76-0.049
			l-0.551,3.72l-0.564,3.7l0,0l3.758-0.049l3.761-0.049l-0.551,3.721l-0.565,3.7l0,0l3.76-0.048l3.761-0.05L80.428,202.692z"/>
		<g>
			
				<rect x="189.515" y="204.157" transform="matrix(-0.7527 0.6583 -0.6583 -0.7527 498.2439 249.7344)" fill="#494949" stroke="#828282" stroke-miterlimit="10" width="25.417" height="28.553"/>
			
				<rect x="204.787" y="186.923" transform="matrix(-0.7528 0.6582 -0.6582 -0.7528 500.5655 223.7042)" fill="#B5B5B5" width="6.982" height="37.841"/>
			
				<rect x="186.156" y="203.218" transform="matrix(-0.7527 0.6583 -0.6583 -0.7527 478.638 264.5036)" fill="#B5B5B5" width="6.981" height="37.841"/>
			<path fill="#494949" stroke="#B5B5B5" stroke-miterlimit="10" d="M450.932,519.267L235.697,273.152l17.478-15.284L468.409,503.98
				l0,0c0,0,19.232,20.562,10.892,43.264c-5.288,12.559,7.286,25.986,21.072,10.751c22.814-25.219,57.352-41.08,57.352-41.08
				l-1.12,3.866l4.879,1.257c0,0-34.373,20.783-53.912,48c-4.692,5.897-25.135,27.834-45.317-2.869
				C452.704,549.257,467.702,537.809,450.932,519.267L450.932,519.267z"/>
			<path fill="#494949" d="M198.572,243.094c1.139,1.305,3.121,1.438,4.426,0.296l25.036-21.895
				c1.304-1.142,1.437-3.124,0.296-4.429l0,0c-1.14-1.303-3.124-1.437-4.427-0.294l-25.036,21.895
				C197.561,239.808,197.431,241.79,198.572,243.094L198.572,243.094z"/>
			<path fill="#494949" d="M229.139,278.051c1.143,1.305,3.125,1.438,4.43,0.296l25.036-21.895c1.304-1.142,1.438-3.124,0.296-4.428
				l0,0c-1.142-1.304-3.122-1.437-4.427-0.296l-25.036,21.896C228.133,274.766,228,276.747,229.139,278.051L229.139,278.051z"/>
			<path fill="#494949" stroke="#828282" stroke-miterlimit="10" d="M214.062,260.809c7.347,8.398,14.355,14.28,15.659,13.14
				l25.039-21.896c1.304-1.14-3.591-8.873-10.937-17.271l0,0c-7.344-8.398-14.354-14.279-15.658-13.139l-25.038,21.895
				C201.821,244.68,206.718,252.411,214.062,260.809L214.062,260.809z"/>
		</g>
		<path fill="#B5B5B5" d="M198.562,221.635c1.767,2.022,4.84,2.229,6.865,0.459c2.02-1.768,2.227-4.841,0.456-6.862
			c-1.768-2.021-4.841-2.228-6.862-0.459C197,216.539,196.793,219.614,198.562,221.635z"/>
		<path fill="#848484" stroke="#000000" stroke-miterlimit="10" d="M248.047,299.032c1.37,1.565,3.748,1.725,5.312,0.356
			l22.675-19.831c1.566-1.368,1.725-3.748,0.356-5.312l0,0c-1.37-1.565-3.746-1.725-5.313-0.356l-22.673,19.831
			C246.836,295.089,246.678,297.468,248.047,299.032L248.047,299.032z"/>
		<path fill="#848484" stroke="#000000" stroke-miterlimit="10" d="M253.831,305.646c1.369,1.566,3.748,1.726,5.312,0.356
			l22.676-19.831c1.566-1.369,1.724-3.746,0.355-5.313l0,0c-1.367-1.565-3.748-1.725-5.313-0.354l-22.674,19.829
			C252.621,301.702,252.462,304.081,253.831,305.646L253.831,305.646z"/>
		<path fill="#848484" stroke="#000000" stroke-miterlimit="10" d="M259.201,311.787c1.37,1.565,3.749,1.725,5.314,0.355
			l22.673-19.829c1.565-1.37,1.726-3.75,0.357-5.314l0,0c-1.37-1.564-3.748-1.723-5.315-0.356l-22.674,19.831
			C257.991,307.844,257.833,310.222,259.201,311.787L259.201,311.787z"/>
		<path fill="#848484" stroke="#000000" stroke-miterlimit="10" d="M264.984,318.401c1.37,1.565,3.749,1.724,5.314,0.354
			l22.675-19.83c1.565-1.369,1.724-3.748,0.356-5.312l0,0c-1.37-1.565-3.749-1.725-5.313-0.356l-22.676,19.83
			C263.776,314.456,263.616,316.836,264.984,318.401L264.984,318.401z"/>
		<path fill="#848484" stroke="#000000" stroke-miterlimit="10" d="M270.357,324.542c1.366,1.566,3.746,1.726,5.312,0.356
			l22.675-19.831c1.565-1.37,1.724-3.748,0.354-5.313l0,0c-1.368-1.565-3.747-1.725-5.312-0.356l-22.677,19.83
			C269.146,320.599,268.986,322.978,270.357,324.542L270.357,324.542z"/>
		<path fill="#848484" stroke="#000000" stroke-miterlimit="10" d="M276.139,331.154c1.37,1.565,3.748,1.726,5.313,0.355
			l22.675-19.829c1.564-1.369,1.725-3.749,0.355-5.313l0,0c-1.369-1.564-3.746-1.725-5.312-0.355l-22.676,19.829
			C274.93,327.209,274.771,329.59,276.139,331.154L276.139,331.154z"/>
		<path fill="#848484" stroke="#000000" stroke-miterlimit="10" d="M281.511,337.296c1.368,1.563,3.747,1.725,5.313,0.355
			l22.674-19.828c1.565-1.371,1.725-3.75,0.355-5.316l0,0c-1.368-1.562-3.747-1.724-5.313-0.354l-22.674,19.831
			C280.301,333.353,280.142,335.731,281.511,337.296L281.511,337.296z"/>
		<path fill="#848484" stroke="#000000" stroke-miterlimit="10" d="M287.294,343.91c1.368,1.566,3.748,1.724,5.312,0.354
			l22.675-19.83c1.564-1.368,1.725-3.746,0.357-5.312l0,0c-1.371-1.564-3.75-1.724-5.314-0.354l-22.676,19.828
			C286.083,339.966,285.926,342.346,287.294,343.91L287.294,343.91z"/>
		<path fill="#848484" stroke="#000000" stroke-miterlimit="10" d="M292.663,350.051c1.371,1.565,3.748,1.725,5.313,0.355
			l22.676-19.83c1.566-1.368,1.726-3.748,0.356-5.312l0,0c-1.368-1.566-3.747-1.727-5.313-0.357l-22.675,19.83
			C291.454,346.106,291.295,348.485,292.663,350.051L292.663,350.051z"/>
		<path fill="#848484" stroke="#000000" stroke-miterlimit="10" d="M298.447,356.664c1.37,1.563,3.749,1.724,5.314,0.355
			l22.675-19.828c1.566-1.371,1.724-3.75,0.355-5.315l0,0c-1.367-1.564-3.748-1.724-5.312-0.355l-22.676,19.83
			C297.238,352.721,297.081,355.099,298.447,356.664L298.447,356.664z"/>
		<path fill="#848484" stroke="#000000" stroke-miterlimit="10" d="M303.818,362.806c1.369,1.564,3.748,1.725,5.312,0.355
			l22.675-19.831c1.566-1.368,1.724-3.748,0.356-5.314l0,0c-1.368-1.562-3.747-1.723-5.313-0.354l-22.675,19.831
			C302.607,358.861,302.451,361.241,303.818,362.806L303.818,362.806z"/>
		<path fill="#848484" stroke="#000000" stroke-miterlimit="10" d="M309.602,369.418c1.371,1.566,3.748,1.726,5.314,0.356
			l22.674-19.83c1.566-1.368,1.724-3.748,0.357-5.312l0,0c-1.369-1.566-3.748-1.727-5.314-0.357l-22.675,19.829
			C308.395,365.475,308.234,367.854,309.602,369.418L309.602,369.418z"/>
		<path fill="#848484" stroke="#000000" stroke-miterlimit="10" d="M314.973,375.56c1.367,1.563,3.746,1.726,5.314,0.354
			l22.673-19.828c1.566-1.37,1.726-3.748,0.354-5.313l0,0c-1.367-1.565-3.745-1.725-5.31-0.354l-22.677,19.829
			C313.762,371.615,313.606,373.994,314.973,375.56L314.973,375.56z"/>
		<path fill="#848484" stroke="#000000" stroke-miterlimit="10" d="M320.756,382.172c1.369,1.566,3.747,1.725,5.312,0.357
			l22.677-19.83c1.566-1.37,1.724-3.749,0.354-5.314l0,0c-1.368-1.564-3.747-1.724-5.313-0.355L321.11,376.86
			C319.546,378.229,319.387,380.61,320.756,382.172L320.756,382.172z"/>
		<path fill="#848484" stroke="#000000" stroke-miterlimit="10" d="M326.127,388.312c1.369,1.564,3.748,1.726,5.314,0.355
			l22.673-19.829c1.565-1.369,1.726-3.748,0.356-5.311l0,0c-1.369-1.566-3.748-1.727-5.314-0.358l-22.674,19.831
			C324.916,384.37,324.759,386.75,326.127,388.312L326.127,388.312z"/>
		<path fill="#848484" stroke="#000000" stroke-miterlimit="10" d="M331.912,394.928c1.366,1.564,3.745,1.724,5.312,0.354
			l22.675-19.828c1.566-1.37,1.724-3.748,0.356-5.313l0,0c-1.369-1.565-3.749-1.725-5.313-0.354l-22.677,19.829
			C330.7,390.983,330.541,393.363,331.912,394.928L331.912,394.928z"/>
		<path fill="#848484" stroke="#000000" stroke-miterlimit="10" d="M336.867,400.595c1.371,1.565,3.749,1.728,5.313,0.357
			l22.675-19.83c1.566-1.37,1.726-3.748,0.356-5.314l0,0c-1.368-1.563-3.747-1.724-5.313-0.354l-22.675,19.828
			C335.657,396.651,335.5,399.032,336.867,400.595L336.867,400.595z"/>
		<path fill="#848484" stroke="#000000" stroke-miterlimit="10" d="M342.653,407.209c1.365,1.565,3.745,1.724,5.31,0.355
			l22.677-19.828c1.566-1.37,1.724-3.749,0.354-5.313l0,0c-1.366-1.566-3.747-1.726-5.312-0.356l-22.675,19.831
			C341.441,403.264,341.282,405.643,342.653,407.209L342.653,407.209z"/>
		<path fill="#848484" stroke="#000000" stroke-miterlimit="10" d="M348.021,413.35c1.368,1.566,3.749,1.726,5.315,0.356
			l22.673-19.83c1.566-1.369,1.724-3.748,0.356-5.314l0,0c-1.369-1.562-3.75-1.724-5.313-0.354l-22.675,19.83
			C346.812,409.407,346.654,411.785,348.021,413.35L348.021,413.35z"/>
		<path fill="#848484" stroke="#000000" stroke-miterlimit="10" d="M353.808,419.963c1.367,1.565,3.745,1.727,5.312,0.357
			l22.675-19.831c1.564-1.368,1.724-3.748,0.354-5.312l0,0c-1.368-1.564-3.745-1.725-5.312-0.355l-22.675,19.827
			C352.596,416.02,352.437,418.399,353.808,419.963L353.808,419.963z"/>
		<path fill="#848484" stroke="#000000" stroke-miterlimit="10" d="M359.178,426.105c1.366,1.564,3.745,1.726,5.312,0.354
			l22.675-19.829c1.566-1.368,1.724-3.749,0.356-5.313l0,0c-1.371-1.564-3.75-1.726-5.313-0.354l-22.675,19.829
			C357.968,422.16,357.809,424.541,359.178,426.105L359.178,426.105z"/>
		<path fill="#848484" stroke="#000000" stroke-miterlimit="10" d="M364.96,432.718c1.368,1.564,3.747,1.725,5.313,0.356
			l22.675-19.83c1.566-1.369,1.726-3.748,0.354-5.313l0,0c-1.369-1.564-3.745-1.725-5.312-0.355l-22.675,19.829
			C363.75,428.775,363.593,431.153,364.96,432.718L364.96,432.718z"/>
		<path fill="#848484" stroke="#000000" stroke-miterlimit="10" d="M370.329,438.858c1.371,1.566,3.748,1.726,5.314,0.357
			l22.675-19.831c1.565-1.367,1.725-3.748,0.356-5.314l0,0c-1.369-1.562-3.748-1.724-5.314-0.354l-22.674,19.831
			C369.12,434.916,368.963,437.295,370.329,438.858L370.329,438.858z"/>
		<path fill="#848484" stroke="#000000" stroke-miterlimit="10" d="M376.114,445.474c1.368,1.564,3.747,1.724,5.313,0.354
			l22.675-19.83c1.565-1.368,1.724-3.748,0.354-5.312l0,0c-1.369-1.564-3.746-1.726-5.314-0.356l-22.672,19.829
			C374.904,441.529,374.745,443.907,376.114,445.474L376.114,445.474z"/>
		<path fill="#848484" stroke="#000000" stroke-miterlimit="10" d="M381.485,451.614c1.367,1.564,3.748,1.724,5.312,0.354
			l22.674-19.828c1.566-1.371,1.726-3.749,0.357-5.312l0,0c-1.369-1.566-3.748-1.727-5.314-0.356l-22.675,19.829
			C380.274,447.669,380.116,450.049,381.485,451.614L381.485,451.614z"/>
		<path fill="#848484" stroke="#000000" stroke-miterlimit="10" d="M387.27,458.227c1.367,1.564,3.746,1.726,5.312,0.358
			l22.674-19.833c1.566-1.368,1.724-3.748,0.357-5.313l0,0c-1.371-1.562-3.75-1.723-5.314-0.354l-22.674,19.831
			C386.059,454.284,385.901,456.663,387.27,458.227L387.27,458.227z"/>
		<path fill="#848484" stroke="#000000" stroke-miterlimit="10" d="M392.638,464.369c1.371,1.563,3.75,1.723,5.313,0.354
			l22.675-19.83c1.566-1.369,1.724-3.748,0.357-5.312l0,0c-1.369-1.566-3.748-1.726-5.314-0.357l-22.675,19.831
			C391.43,460.424,391.271,462.803,392.638,464.369L392.638,464.369z"/>
		<path fill="#848484" stroke="#000000" stroke-miterlimit="10" d="M398.422,470.982c1.369,1.563,3.748,1.724,5.314,0.354
			l22.674-19.831c1.566-1.368,1.724-3.747,0.357-5.312l0,0c-1.369-1.563-3.748-1.723-5.314-0.354l-22.674,19.829
			C397.213,467.039,397.055,469.416,398.422,470.982L398.422,470.982z"/>
		<path fill="#848484" stroke="#000000" stroke-miterlimit="10" d="M403.794,477.123c1.369,1.565,3.747,1.724,5.313,0.354
			l22.675-19.829c1.564-1.369,1.722-3.749,0.354-5.313l0,0c-1.368-1.563-3.747-1.726-5.313-0.356l-22.675,19.831
			C402.582,473.178,402.425,475.559,403.794,477.123L403.794,477.123z"/>
		<path fill="#848484" stroke="#000000" stroke-miterlimit="10" d="M409.578,483.735c1.367,1.564,3.746,1.726,5.312,0.357
			l22.674-19.831c1.566-1.369,1.726-3.75,0.355-5.312l0,0c-1.367-1.566-3.746-1.726-5.312-0.357l-22.675,19.83
			C408.367,479.793,408.207,482.172,409.578,483.735L409.578,483.735z"/>
		<path fill="#848484" stroke="#000000" stroke-miterlimit="10" d="M414.946,489.879c1.368,1.563,3.749,1.721,5.315,0.353
			l22.675-19.828c1.564-1.371,1.724-3.747,0.354-5.312l0,0c-1.369-1.564-3.748-1.726-5.312-0.356l-22.677,19.83
			C413.736,485.934,413.579,488.312,414.946,489.879L414.946,489.879z"/>
		<path fill="#848484" stroke="#000000" stroke-miterlimit="10" d="M420.732,496.491c1.367,1.563,3.746,1.725,5.312,0.354
			l22.675-19.83c1.566-1.369,1.724-3.748,0.354-5.312l0,0c-1.366-1.564-3.745-1.724-5.312-0.354l-22.675,19.829
			C419.521,492.547,419.363,494.927,420.732,496.491L420.732,496.491z"/>
		<g opacity="0.06">
			<defs>
				<path id="SVGID_3_" opacity="0.06" d="M80.428,202.692l27.017,30.893c0,0,0.214-10.835,10.029-12.984
					c9.819-2.151,17.273,8.302,21.839,15.606c4.885,7.816-0.171,19.648-6.745,24.617l11.703,13.92l121.403-106.173L162.395,50.474
					c-26.466-30.263-72.456-33.341-102.721-6.876L47.393,54.339c-30.264,26.465-33.341,72.455-6.874,102.719l1.376,1.662l0,0
					l4.154-0.063l3.762-0.048l-0.55,3.72l-0.548,3.72l0,0l3.684-0.133l3.761-0.05l-0.55,3.719l-0.55,3.72l0,0l3.803-0.001
					l3.76-0.049l-0.552,3.719l-0.564,3.702l0,0l3.759-0.049l3.76-0.049l-0.551,3.72l-0.564,3.7l0,0l3.758-0.049l3.761-0.049
					l-0.551,3.721l-0.565,3.7l0,0l3.76-0.048l3.761-0.05L80.428,202.692z"/>
			</defs>
			<clipPath id="SVGID_4_">
				<use xlink:href="#SVGID_3_"  overflow="visible"/>
			</clipPath>
			<path clip-path="url(#SVGID_4_)" fill="#939393" d="M128.314,340.384c15.971,18.264,43.723,20.122,61.985,4.15l0,0
				c18.263-15.973,20.12-43.723,4.149-61.986L4.826,65.722c-15.973-18.263-43.723-20.121-61.986-4.148l0,0
				c-18.262,15.971-20.12,43.722-4.147,61.985L128.314,340.384z"/>
			<path clip-path="url(#SVGID_4_)" fill="#D1D1D1" d="M265.956,224.181c15.971,18.262,43.722,20.12,61.983,4.148l0,0
				c18.265-15.972,20.119-43.722,4.147-61.986L142.468-50.481c-15.972-18.263-43.725-20.119-61.985-4.149l0,0
				C62.218-38.658,60.36-10.908,76.332,7.356L265.956,224.181z"/>
		</g>
	</g>
</g>
</svg>
